<svg width="30" height="21" viewBox="0 0 30 21" fill="none" xmlns="http://www.w3.org/2000/svg">
<rect x="0.5" y="0.5" width="29" height="20" rx="5.5" fill="#262626"/>
<rect x="0.5" y="0.5" width="29" height="20" rx="5.5" stroke="#262626"/>
<path d="M10.64 11.5586C12.5541 11.5684 13.765 12.1738 13.7748 13.2188C13.765 14.2441 12.5541 14.8594 10.64 14.8594C8.7357 14.8594 7.515 14.2441 7.515 13.2188C7.515 12.1738 8.7357 11.5684 10.64 11.5586ZM10.64 12.3789C9.37047 12.3789 8.59898 12.6816 8.60875 13.2188C8.59898 13.7363 9.37047 14.0195 10.64 14.0195C11.9193 14.0195 12.6908 13.7363 12.7005 13.2188C12.6908 12.6816 11.9193 12.3789 10.64 12.3789ZM13.7162 6.46094V7.19336C13.7162 7.88672 13.7162 8.62891 13.472 9.53711L12.3978 9.43945C12.6175 8.58008 12.6322 7.95996 12.6322 7.32031H7.60289V6.46094H13.7162ZM14.6927 10.0449V10.9238H6.68492V10.0449H9.79039V8.44336H10.8646V10.0449H14.6927ZM18.608 8.55078C18.608 9.99609 19.4577 11.5195 20.8834 12.1152L20.2877 12.9746C19.2428 12.5254 18.4811 11.5977 18.0807 10.4746C17.6705 11.6855 16.8991 12.7012 15.8639 13.1895L15.2389 12.3398C16.6354 11.6953 17.5045 10.0547 17.5045 8.55078V7.80859H15.5612V6.91016H20.5416V7.80859H18.608V8.55078ZM22.6217 6.04102V14.8691H21.528V6.04102H22.6217Z" fill="white"/>
</svg>
