<svg width="47" height="21" viewBox="0 0 47 21" fill="none" xmlns="http://www.w3.org/2000/svg">
<rect x="0.5" y="0.5" width="46" height="20" rx="5.5" fill="#F2F2F2"/>
<rect x="0.5" y="0.5" width="46" height="20" rx="5.5" stroke="#F2F2F2"/>
<path d="M13.5157 6.04102V8.00391H14.7462V8.90234H13.5157V10.7578H12.4317V6.04102H13.5157ZM10.8497 6.58789V7.4668H7.99813V9.63477C9.65828 9.62988 10.5811 9.58105 11.6309 9.35156L11.7481 10.2305C10.5958 10.4746 9.56063 10.5234 7.6368 10.5234H6.92391V6.58789H10.8497ZM8.87703 11.1973V12.1055H12.4317V11.1973H13.5157V14.7422H7.79305V11.1973H8.87703ZM8.87703 13.8633H12.4317V12.9648H8.87703V13.8633ZM22.558 6.05078V12.5645H21.474V10.3477H19.6966V11.1289H15.5658V6.62695H16.6498V8.05273H18.6224V6.62695H19.6966V7.57422H21.474V6.05078H22.558ZM22.7533 13.8145V14.6934H16.7377V11.9199H17.8412V13.8145H22.7533ZM16.6498 10.2695H18.6224V8.89258H16.6498V10.2695ZM19.6966 9.46875H21.474V8.45312H19.6966V9.46875ZM26.444 6.42188C27.733 6.42188 28.651 7.13477 28.6608 8.19922C28.651 9.07324 27.9918 9.73242 27.0104 9.91797V10.6309C27.7428 10.5918 28.4801 10.5234 29.1686 10.4258L29.2565 11.2168C27.4205 11.5488 25.3698 11.5781 23.8756 11.5781L23.7584 10.709C24.3932 10.7139 25.1354 10.709 25.9166 10.6797V9.91797C24.9059 9.75195 24.2272 9.08789 24.237 8.19922C24.2272 7.13477 25.1452 6.42188 26.444 6.42188ZM26.444 7.25195C25.7409 7.25195 25.2428 7.60352 25.2526 8.19922C25.2428 8.77539 25.7409 9.13672 26.444 9.14648C27.1471 9.13672 27.6256 8.77539 27.6354 8.19922C27.6256 7.60352 27.1471 7.25195 26.444 7.25195ZM30.7702 6.05078V8.90234H31.9616V9.80078H30.7702V12.7891H29.6862V6.05078H30.7702ZM31.0827 13.8047V14.6836H24.9694V12.1934H26.0534V13.8047H31.0827ZM40.457 12.9453V13.8438H32.3905V12.9453H34.5292V11.4902H33.3476V8.60938H38.4257V7.52539H33.328V6.64648H39.4999V9.47852H34.4316V10.6113H39.705V11.4902H38.4159V12.9453H40.457ZM35.5839 12.9453H37.3515V11.4902H35.5839V12.9453Z" fill="#067DF4"/>
</svg>
