<svg width="30" height="21" viewBox="0 0 30 21" fill="none" xmlns="http://www.w3.org/2000/svg">
<rect x="0.5" y="0.5" width="29" height="20" rx="5.5" fill="#262626"/>
<rect x="0.5" y="0.5" width="29" height="20" rx="5.5" stroke="#262626"/>
<path d="M13.6283 6.04102V8.00391H14.8588V8.90234H13.6283V10.7578H12.5443V6.04102H13.6283ZM10.9623 6.58789V7.4668H8.1107V9.63477C9.77086 9.62988 10.6937 9.58105 11.7435 9.35156L11.8607 10.2305C10.7084 10.4746 9.6732 10.5234 7.74938 10.5234H7.03648V6.58789H10.9623ZM8.98961 11.1973V12.1055H12.5443V11.1973H13.6283V14.7422H7.90563V11.1973H8.98961ZM8.98961 13.8633H12.5443V12.9648H8.98961V13.8633ZM22.6705 6.05078V12.5645H21.5866V10.3477H19.8092V11.1289H15.6784V6.62695H16.7623V8.05273H18.735V6.62695H19.8092V7.57422H21.5866V6.05078H22.6705ZM22.8659 13.8145V14.6934H16.8502V11.9199H17.9538V13.8145H22.8659ZM16.7623 10.2695H18.735V8.89258H16.7623V10.2695ZM19.8092 9.46875H21.5866V8.45312H19.8092V9.46875Z" fill="white"/>
</svg>
