<svg width="47" height="21" viewBox="0 0 47 21" fill="none" xmlns="http://www.w3.org/2000/svg">
<rect x="0.5" y="0.5" width="46" height="20" rx="5.5" fill="#F2F2F2"/>
<rect x="0.5" y="0.5" width="46" height="20" rx="5.5" stroke="#F2F2F2"/>
<path d="M13.5157 6.04102V8.00391H14.7462V8.90234H13.5157V10.7578H12.4317V6.04102H13.5157ZM10.8497 6.58789V7.4668H7.99813V9.63477C9.65828 9.62988 10.5811 9.58105 11.6309 9.35156L11.7481 10.2305C10.5958 10.4746 9.56063 10.5234 7.6368 10.5234H6.92391V6.58789H10.8497ZM8.87703 11.1973V12.1055H12.4317V11.1973H13.5157V14.7422H7.79305V11.1973H8.87703ZM8.87703 13.8633H12.4317V12.9648H8.87703V13.8633ZM22.558 6.05078V12.5645H21.474V10.3477H19.6966V11.1289H15.5658V6.62695H16.6498V8.05273H18.6224V6.62695H19.6966V7.57422H21.474V6.05078H22.558ZM22.7533 13.8145V14.6934H16.7377V11.9199H17.8412V13.8145H22.7533ZM16.6498 10.2695H18.6224V8.89258H16.6498V10.2695ZM19.6966 9.46875H21.474V8.45312H19.6966V9.46875ZM31.3756 6.04102V14.8691H30.3405V10.3672H29.3444V14.4199H28.3483V6.20703H29.3444V9.49805H30.3405V6.04102H31.3756ZM27.3522 7.08594V7.96484H25.1452V11.8906C26.1071 11.8809 26.8981 11.832 27.7916 11.666L27.8698 12.5547C26.8053 12.7695 25.8776 12.7988 24.6471 12.8086H24.0514V7.08594H27.3522ZM39.7636 6.04102V14.8691H38.6698V6.04102H39.7636ZM37.1269 6.97852C37.1269 9.60547 36.1112 11.8418 33.0155 13.3066L32.4491 12.4375C34.7587 11.3389 35.8329 9.84473 36.0234 7.83789H32.8984V6.97852H37.1269Z" fill="#868686"/>
</svg>
