<svg width="34" height="9" viewBox="0 0 34 9" fill="none" xmlns="http://www.w3.org/2000/svg">
<path d="M7.5157 0.0410156V2.00391H8.74617V2.90234H7.5157V4.75781H6.43172V0.0410156H7.5157ZM4.84969 0.587891V1.4668H1.99813V3.63477C3.65828 3.62988 4.58113 3.58105 5.63094 3.35156L5.74813 4.23047C4.59578 4.47461 3.56063 4.52344 1.6368 4.52344H0.923906V0.587891H4.84969ZM2.87703 5.19727V6.10547H6.43172V5.19727H7.5157V8.74219H1.79305V5.19727H2.87703ZM2.87703 7.86328H6.43172V6.96484H2.87703V7.86328ZM16.558 0.0507812V6.56445H15.474V4.34766H13.6966V5.12891H9.56578V0.626953H10.6498V2.05273H12.6224V0.626953H13.6966V1.57422H15.474V0.0507812H16.558ZM16.7533 7.81445V8.69336H10.7377V5.91992H11.8412V7.81445H16.7533ZM10.6498 4.26953H12.6224V2.89258H10.6498V4.26953ZM13.6966 3.46875H15.474V2.45312H13.6966V3.46875ZM25.3756 0.0410156V8.86914H24.3405V4.36719H23.3444V8.41992H22.3483V0.207031H23.3444V3.49805H24.3405V0.0410156H25.3756ZM21.3522 1.08594V1.96484H19.1452V5.89062C20.1071 5.88086 20.8981 5.83203 21.7916 5.66602L21.8698 6.55469C20.8053 6.76953 19.8776 6.79883 18.6471 6.80859H18.0514V1.08594H21.3522ZM33.7636 0.0410156V8.86914H32.6698V0.0410156H33.7636ZM31.1269 0.978516C31.1269 3.60547 30.1112 5.8418 27.0155 7.30664L26.4491 6.4375C28.7587 5.33887 29.8329 3.84473 30.0234 1.83789H26.8984V0.978516H31.1269Z" fill="#868686"/>
</svg>
