<svg width="28" height="28" viewBox="0 0 28 28" fill="none" xmlns="http://www.w3.org/2000/svg">
<rect x="0.5" y="0.5" width="27" height="27" rx="13.5" fill="white"/>
<rect x="0.5" y="0.5" width="27" height="27" rx="13.5" stroke="#D6D6D6"/>
<g clip-path="url(#clip0_13_8432)">
<path d="M20.675 9.3876H18.65L17.2625 8.0001C17.15 7.8876 17 7.8501 16.85 7.8501H11.45C11.3 7.8501 11.15 7.9251 11.0375 8.0001L9.64995 9.3876H7.32495C7.02495 9.3876 6.76245 9.6501 6.76245 9.9501V19.6251C6.76245 19.9251 7.02495 20.1876 7.32495 20.1876H20.6375C20.9375 20.1876 21.2 19.9251 21.2 19.6251V9.9501C21.2375 9.6501 20.975 9.3876 20.675 9.3876Z" fill="#666666"/>
<path d="M14 17.0376C15.5533 17.0376 16.8125 15.7784 16.8125 14.2251C16.8125 12.6718 15.5533 11.4126 14 11.4126C12.4467 11.4126 11.1875 12.6718 11.1875 14.2251C11.1875 15.7784 12.4467 17.0376 14 17.0376Z" fill="white"/>
<path d="M19.3251 12.0499H17.6751C17.4126 12.0499 17.2251 11.8624 17.2251 11.5999C17.2251 11.3374 17.4126 11.1499 17.6751 11.1499H19.3251C19.5876 11.1499 19.7751 11.3374 19.7751 11.5999C19.7751 11.8624 19.5876 12.0499 19.3251 12.0499Z" fill="white"/>
</g>
<defs>
<clipPath id="clip0_13_8432">
<rect width="18" height="18" fill="white" transform="translate(5 5)"/>
</clipPath>
</defs>
</svg>
