<svg width="12" height="12" viewBox="0 0 12 12" fill="none" xmlns="http://www.w3.org/2000/svg">
<g clip-path="url(#clip0_1_6583)">
<path d="M6 12C9.31371 12 12 9.31371 12 6C12 2.68629 9.31371 0 6 0C2.68629 0 0 2.68629 0 6C0 9.31371 2.68629 12 6 12Z" fill="white"/>
<path fill-rule="evenodd" clip-rule="evenodd" d="M9.21977 3.99213C9.53218 4.30455 9.53218 4.81108 9.21977 5.1235L5.87361 8.46965C5.56119 8.78207 5.05466 8.78207 4.74224 8.46965L2.7807 6.50811C2.46828 6.19569 2.46828 5.68916 2.7807 5.37674C3.09312 5.06432 3.59965 5.06432 3.91207 5.37674L5.30793 6.7726L8.08839 3.99213C8.40081 3.67971 8.90735 3.67971 9.21977 3.99213Z" fill="#0062FE"/>
</g>
<defs>
<clipPath id="clip0_1_6583">
<rect width="12" height="12" fill="white"/>
</clipPath>
</defs>
</svg>
