<svg width="28" height="28" viewBox="0 0 28 28" fill="none" xmlns="http://www.w3.org/2000/svg">
<rect x="2.83301" y="2.83203" width="22.3333" height="22.3333" rx="11.1667" fill="#0062FE" stroke="#0062FE"/>
<mask id="path-2-outside-1_1_11829" maskUnits="userSpaceOnUse" x="7.27075" y="9.18815" width="13" height="9" fill="black">
<rect fill="white" x="7.27075" y="9.18815" width="13" height="9"/>
<path fill-rule="evenodd" clip-rule="evenodd" d="M12.2499 17.6673C12.3749 17.7923 12.5416 17.834 12.7083 17.834C12.8749 17.834 13.0416 17.7507 13.1249 17.6257L19.4999 11.2507C19.7499 11.0007 19.7499 10.6257 19.4999 10.3757C19.2499 10.1257 18.8749 10.1257 18.6249 10.3757L12.6666 16.334L9.33325 13.0007C9.08325 12.7507 8.70825 12.7507 8.45825 13.0007C8.20825 13.2507 8.20825 13.6257 8.45825 13.8757L12.2499 17.6673Z"/>
</mask>
<path fill-rule="evenodd" clip-rule="evenodd" d="M12.2499 17.6673C12.3749 17.7923 12.5416 17.834 12.7083 17.834C12.8749 17.834 13.0416 17.7507 13.1249 17.6257L19.4999 11.2507C19.7499 11.0007 19.7499 10.6257 19.4999 10.3757C19.2499 10.1257 18.8749 10.1257 18.6249 10.3757L12.6666 16.334L9.33325 13.0007C9.08325 12.7507 8.70825 12.7507 8.45825 13.0007C8.20825 13.2507 8.20825 13.6257 8.45825 13.8757L12.2499 17.6673Z" fill="white"/>
<path d="M12.2499 17.6673L12.1085 17.8087L12.2499 17.6673ZM13.1249 17.6257L12.9835 17.4842L12.9695 17.4982L12.9585 17.5147L13.1249 17.6257ZM19.4999 11.2507L19.6413 11.3921L19.4999 11.2507ZM18.6249 10.3757L18.7663 10.5171V10.5171L18.6249 10.3757ZM12.6666 16.334L12.5252 16.4754L12.6666 16.6168L12.808 16.4754L12.6666 16.334ZM8.45825 13.8757L8.59967 13.7342H8.59967L8.45825 13.8757ZM12.7083 17.634C12.5724 17.634 12.4656 17.6002 12.3913 17.5259L12.1085 17.8087C12.2842 17.9845 12.5108 18.034 12.7083 18.034V17.634ZM12.9585 17.5147C12.9168 17.5773 12.8167 17.634 12.7083 17.634V18.034C12.9332 18.034 13.1664 17.924 13.2913 17.7366L12.9585 17.5147ZM19.3585 11.1092L12.9835 17.4842L13.2663 17.7671L19.6413 11.3921L19.3585 11.1092ZM19.3585 10.5171C19.5304 10.689 19.5304 10.9373 19.3585 11.1092L19.6413 11.3921C19.9694 11.064 19.9694 10.5623 19.6413 10.2342L19.3585 10.5171ZM18.7663 10.5171C18.9382 10.3452 19.1866 10.3452 19.3585 10.5171L19.6413 10.2342C19.3132 9.90613 18.8116 9.90613 18.4835 10.2342L18.7663 10.5171ZM12.808 16.4754L18.7663 10.5171L18.4835 10.2342L12.5252 16.1926L12.808 16.4754ZM9.19183 13.1421L12.5252 16.4754L12.808 16.1926L9.47467 12.8592L9.19183 13.1421ZM8.59967 13.1421C8.77157 12.9702 9.01993 12.9702 9.19183 13.1421L9.47467 12.8592C9.14656 12.5311 8.64494 12.5311 8.31683 12.8592L8.59967 13.1421ZM8.59967 13.7342C8.42778 13.5623 8.42778 13.314 8.59967 13.1421L8.31683 12.8592C7.98873 13.1873 7.98873 13.689 8.31683 14.0171L8.59967 13.7342ZM12.3913 17.5259L8.59967 13.7342L8.31683 14.0171L12.1085 17.8087L12.3913 17.5259Z" fill="white" mask="url(#path-2-outside-1_1_11829)"/>
</svg>
