<svg width="84" height="28" viewBox="0 0 84 28" fill="none" xmlns="http://www.w3.org/2000/svg">
<rect x="0.5" y="0.5" width="83" height="27" rx="5.5" fill="#0062FE"/>
<rect x="0.5" y="0.5" width="83" height="27" rx="5.5" stroke="#0062FE"/>
<g clip-path="url(#clip0_1_6462)">
<path d="M14.4129 11.8626H22.2504C22.5504 11.8626 22.8129 11.6001 22.8129 11.3001C22.8129 11.0001 22.5504 10.7376 22.2504 10.7376H14.4129C14.1504 9.9126 13.4379 9.3501 12.5379 9.3501C11.4504 9.3501 10.5879 10.2501 10.5879 11.3001C10.5879 12.3501 11.4504 13.2501 12.5379 13.2501C13.4379 13.2501 14.1879 12.6876 14.4129 11.8626ZM11.7129 11.3001C11.7129 10.8501 12.0879 10.4751 12.5379 10.4751C12.9879 10.4751 13.3629 10.8501 13.3629 11.3001C13.3629 11.7501 12.9879 12.1251 12.5379 12.1251C12.0879 12.1251 11.7129 11.7501 11.7129 11.3001Z" fill="white"/>
<path d="M21.4633 14.75C20.5633 14.75 19.8133 15.35 19.5883 16.1375H11.8633C11.5633 16.1375 11.3008 16.4 11.3008 16.7C11.3008 17 11.5633 17.2625 11.8633 17.2625H19.5883C19.8508 18.0875 20.5633 18.65 21.4633 18.65C22.5508 18.65 23.4133 17.75 23.4133 16.7C23.4133 15.6125 22.5508 14.75 21.4633 14.75ZM21.4633 17.525C21.0133 17.525 20.6383 17.15 20.6383 16.7C20.6383 16.25 21.0133 15.875 21.4633 15.875C21.9133 15.875 22.2883 16.25 22.2883 16.7C22.2883 17.15 21.9133 17.525 21.4633 17.525Z" fill="white"/>
</g>
<path d="M34.4134 10.1367C34.4134 11.4727 35.2806 12.7266 36.9095 13.2422L36.2063 14.2617C35.0638 13.875 34.2435 13.1016 33.7923 12.1172C33.3235 13.2422 32.4681 14.127 31.2493 14.5547L30.5462 13.5352C32.2571 12.9375 33.1009 11.5312 33.1126 10.0195V9.01172H34.4134V10.1367ZM39.0188 8.44922V11.0273H40.4954V12.1055H39.0188V14.7891H37.7181V8.44922H39.0188ZM35.5735 15.0234C37.7649 15.0117 39.1126 15.7617 39.1243 17.0156C39.1126 18.293 37.7649 19.0312 35.5735 19.0312C33.3587 19.0312 31.9876 18.293 31.9876 17.0156C31.9876 15.7617 33.3587 15.0117 35.5735 15.0234ZM35.5735 16.043C34.1204 16.043 33.2884 16.3945 33.2884 17.0156C33.2884 17.6719 34.1204 18 35.5735 18C37.0267 18 37.8353 17.6719 37.8353 17.0156C37.8353 16.3945 37.0267 16.043 35.5735 16.043ZM44.3032 11.2266C44.3032 12.9375 44.9008 14.7188 46.3305 15.6211L45.6157 16.6172C44.6606 16.043 44.0395 15.0527 43.6938 13.8867C43.3071 15.1699 42.6274 16.2539 41.6313 16.8633L40.8227 15.8906C42.3578 14.9531 43.0493 13.0898 43.0493 11.2852V9.38672H44.3032V11.2266ZM50.1391 8.44922V19.043H48.8852V8.44922H50.1391ZM47.936 8.63672V18.5273H46.7055V13.1719H45.1938V12.0938H46.7055V8.63672H47.936ZM56.8179 9.09375C56.8062 11.8242 55.0133 13.7344 51.9312 14.6016L51.4039 13.582C53.7769 12.9316 55.1832 11.6953 55.4234 10.1484H51.9781V9.09375H56.8179ZM60.2047 8.46094V14.4258H58.9039V12.1172H56.8648V11.0508H58.9039V8.46094H60.2047ZM60.2047 14.8477V18.9023H53.232V14.8477H60.2047ZM54.5093 15.8789V17.8711H58.9156V15.8789H54.5093ZM64.9733 10.3711C64.9733 11.5547 65.6296 12.7266 67.0241 13.2773L66.321 14.2734C65.3894 13.8984 64.739 13.207 64.364 12.3516C63.9655 13.3125 63.2741 14.1211 62.2663 14.5547L61.5749 13.5469C63.028 12.9023 63.7077 11.5664 63.7194 10.3711V9.08203H64.9733V10.3711ZM70.7273 8.46094V14.8711H69.4851V12.1758H68.4304V14.8125H67.2116V8.63672H68.4304V11.0977H69.4851V8.46094H70.7273ZM70.7273 15.375V19.043H69.4265V16.418H63.4733V15.375H70.7273Z" fill="white"/>
<defs>
<clipPath id="clip0_1_6462">
<rect width="18" height="18" fill="white" transform="translate(8 5)"/>
</clipPath>
</defs>
</svg>
