<svg width="119" height="21" viewBox="0 0 119 21" fill="none" xmlns="http://www.w3.org/2000/svg">
<rect x="0.5" y="0.5" width="118" height="20" rx="10" fill="#F0F5FF"/>
<rect x="0.5" y="0.5" width="118" height="20" rx="10" stroke="#F0F5FF"/>
<path d="M7.11938 8.59063V12.4348C7.11938 12.9949 7.42488 13.5041 7.90859 13.7841L11.2436 15.6935C11.7273 15.9735 12.3383 15.9735 12.822 15.6935L16.1571 13.7841C16.6408 13.5041 16.9463 12.9949 16.9463 12.4348V8.59063C16.9463 8.03055 16.6408 7.52139 16.1571 7.24135L12.7966 5.30652C12.3129 5.02648 11.7019 5.02648 11.2182 5.30652L7.90859 7.21589C7.39943 7.49593 7.11938 8.03055 7.11938 8.59063Z" fill="url(#paint0_linear_1_11805)"/>
<path fill-rule="evenodd" clip-rule="evenodd" d="M13.0113 4.93424C13.0115 4.93434 13.0116 4.93444 13.0118 4.93454L16.3723 6.86936C16.9834 7.22314 17.376 7.87106 17.376 8.59063V12.4348C17.376 13.1544 16.9834 13.8023 16.3723 14.1561L16.3705 14.1571L13.0373 16.0655C13.037 16.0656 13.0367 16.0658 13.0364 16.066C12.4199 16.4224 11.6455 16.4225 11.0291 16.066C11.0288 16.0658 11.0285 16.0656 11.0282 16.0655L7.69312 14.1561C7.08206 13.8023 6.68945 13.1544 6.68945 12.4348V8.59063C6.68945 7.89119 7.03995 7.20508 7.69726 6.84152L11.0027 4.93454C11.0028 4.93449 11.0029 4.93445 11.0029 4.9344C11.6196 4.57748 12.3945 4.57742 13.0113 4.93424ZM12.5811 5.6785C12.2306 5.47559 11.7839 5.47559 11.4334 5.6785L8.12328 7.5882C8.12074 7.58966 8.11819 7.5911 8.11562 7.59251C7.75724 7.78962 7.5491 8.17136 7.5491 8.59063V12.4348C7.5491 12.8351 7.76714 13.2052 8.12297 13.4116C8.12326 13.4118 8.12355 13.412 8.12384 13.4121L11.4589 15.3215C11.8094 15.5244 12.2561 15.5244 12.6066 15.3215L12.6084 15.3205L15.9416 13.4121C15.9419 13.412 15.9422 13.4118 15.9424 13.4116C16.2983 13.2052 16.5163 12.8351 16.5163 12.4348V8.59063C16.5163 8.1902 16.2981 7.81991 15.942 7.61356C15.9419 7.61348 15.9417 7.61341 15.9416 7.61333L12.582 5.67902L12.5811 5.6785Z" fill="#0062FE"/>
<path fill-rule="evenodd" clip-rule="evenodd" d="M11.1392 8.46916C11.3002 8.47037 11.4471 8.56151 11.5196 8.70528L12.9432 11.5255C13.0501 11.7374 12.9651 11.9959 12.7531 12.1029C12.5412 12.2099 12.2827 12.1248 12.1757 11.9129L11.1288 9.83881L10.0394 11.9186C9.92928 12.1289 9.66951 12.2101 9.45923 12.0999C9.24895 11.9898 9.16777 11.73 9.27792 11.5197L10.7552 8.69953C10.8299 8.55686 10.9781 8.46794 11.1392 8.46916Z" fill="white"/>
<path fill-rule="evenodd" clip-rule="evenodd" d="M13.8219 8.46914C14.0593 8.46914 14.2517 8.66158 14.2517 8.89897V11.7192C14.2517 11.9566 14.0593 12.149 13.8219 12.149C13.5845 12.149 13.3921 11.9566 13.3921 11.7192V8.89897C13.3921 8.66158 13.5845 8.46914 13.8219 8.46914Z" fill="white"/>
<path fill-rule="evenodd" clip-rule="evenodd" d="M9.87354 10.8824C9.87354 10.645 10.066 10.4526 10.3034 10.4526H11.9418C12.1792 10.4526 12.3716 10.645 12.3716 10.8824C12.3716 11.1198 12.1792 11.3122 11.9418 11.3122H10.3034C10.066 11.3122 9.87354 11.1198 9.87354 10.8824Z" fill="white"/>
<path d="M30.4384 12.9062V13.7949H22.372V12.9062H25.8486V10.9824H23.2607V6.72461H29.5107V10.9824H26.9228V12.9062H30.4384ZM24.3252 7.59375V10.1328H28.4365V7.59375H24.3252ZM38.0745 9.23438V10.0938H32.0295V6.5293H37.9768V7.39844H33.1428V9.23438H38.0745ZM39.0413 11.0703V11.9492H35.5256V14.8496H34.4514V11.9492H30.9748V11.0703H39.0413ZM46.5113 6.04102V9.48828H47.8198V10.3965H46.5113V14.8496H45.4273V6.04102H46.5113ZM44.1773 6.95898C44.1773 9.55664 43.103 11.832 40.1636 13.2773L39.5484 12.4375C41.6968 11.3682 42.8589 9.86426 43.0835 7.85742H40.0269V6.95898H44.1773ZM55.1036 8.66797V9.55664H58.6095V10.4355H50.543V9.55664H54.0294V8.66797H55.1036ZM57.877 6.28516V7.11523H55.3477C55.5528 7.74512 56.5977 8.27734 58.2188 8.375L57.877 9.18555C56.2413 9.05859 55.0352 8.50195 54.5763 7.66211C54.1124 8.50195 52.9014 9.05859 51.2755 9.18555L50.9239 8.375C52.5157 8.28223 53.5704 7.74023 53.795 7.11523H51.2852V6.28516H57.877ZM57.8477 11.4219V12.2422H51.2852V11.4219H54.0196V10.709H55.1134V11.4219H57.8477ZM54.5567 12.5645C56.2657 12.5645 57.2618 12.9648 57.2618 13.7266C57.2618 14.498 56.2657 14.8984 54.5567 14.8984C52.838 14.8984 51.8712 14.498 51.8712 13.7266C51.8712 12.9648 52.838 12.5645 54.5567 12.5645ZM54.5567 13.2969C53.5313 13.2969 52.9845 13.4238 52.9845 13.7266C52.9845 14.0293 53.5313 14.1758 54.5567 14.1758C55.6016 14.1758 56.129 14.0293 56.1388 13.7266C56.129 13.4238 55.6016 13.2969 54.5567 13.2969ZM61.5384 6.68555C62.8666 6.68555 63.8236 7.89648 63.8334 9.80078C63.8236 11.7246 62.8666 12.9258 61.5384 12.9258C60.2005 12.9258 59.2337 11.7246 59.2435 9.80078C59.2337 7.89648 60.2005 6.68555 61.5384 6.68555ZM61.5384 7.66211C60.7962 7.66211 60.2884 8.45312 60.2884 9.80078C60.2884 11.1582 60.7962 11.9492 61.5384 11.9492C62.2904 11.9492 62.7884 11.1582 62.7884 9.80078C62.7884 8.45312 62.2904 7.66211 61.5384 7.66211ZM66.0795 6.04102V9.42969H67.4369V10.3477H66.0795V14.8691H64.9955V6.04102H66.0795ZM74.692 6.04102V9.55664H76.0495V10.4551H74.692V14.8691H73.6178V6.04102H74.692ZM72.9342 7.39844V8.26758H67.7291V7.39844H69.819V6.16797H70.903V7.39844H72.9342ZM70.3659 8.84375C71.6354 8.84375 72.5827 9.70312 72.5827 10.9238C72.5827 12.1445 71.6354 12.9941 70.3659 12.9941C69.0768 12.9941 68.1295 12.1445 68.1393 10.9238C68.1295 9.70312 69.0768 8.84375 70.3659 8.84375ZM70.3659 9.73242C69.6725 9.73242 69.1745 10.2012 69.1745 10.9238C69.1745 11.6465 69.6725 12.1055 70.3659 12.0957C71.0397 12.1055 71.5377 11.6465 71.5475 10.9238C71.5377 10.2012 71.0397 9.73242 70.3659 9.73242ZM83.539 8.54102V9.40039H77.4257V6.36328H78.4999V8.54102H83.539ZM84.4472 10.4258V11.2852H76.3808V10.4258H84.4472ZM83.5976 13.7852V14.6641H77.3476V12.0664H78.4316V13.7852H83.5976ZM95.0024 7.22266V8.10156H87.7075V7.22266H90.8227V6.1582H91.897V7.22266H95.0024ZM95.4126 13.043V13.9219H87.3462V13.043H90.8227V11.959C89.2944 11.8369 88.3716 11.2266 88.3813 10.25C88.3716 9.18555 89.5141 8.55078 91.3598 8.55078C93.1763 8.55078 94.3286 9.18555 94.3286 10.25C94.3286 11.2217 93.4009 11.832 91.897 11.9492V13.043H95.4126ZM91.3598 9.40039C90.1587 9.41016 89.4848 9.69336 89.4946 10.25C89.4848 10.8164 90.1587 11.0996 91.3598 11.1094C92.5415 11.0996 93.2153 10.8164 93.2153 10.25C93.2153 9.69336 92.5415 9.41016 91.3598 9.40039ZM102.922 6.04102V8.05273H104.152V8.94141H102.922V11.002H101.838V6.04102H102.922ZM100.47 6.57812C100.461 8.87305 98.9568 10.4648 96.3201 11.168L95.8904 10.2988C97.9363 9.77148 99.0984 8.73145 99.2888 7.45703H96.3103V6.57812H100.47ZM102.922 11.3535V14.752H97.2087V11.3535H102.922ZM98.2927 12.2422V13.8926H101.847V12.2422H98.2927ZM109.522 6.91992V7.7793H104.591V6.91992H106.564V5.96289H107.647V6.91992H109.522ZM107.091 8.13086C108.292 8.13086 109.151 8.79492 109.161 9.78125C109.151 10.7578 108.292 11.4121 107.091 11.4121C105.89 11.4121 105.04 10.7578 105.05 9.78125C105.04 8.79492 105.89 8.13086 107.091 8.13086ZM107.091 8.94141C106.466 8.94141 106.056 9.25391 106.065 9.78125C106.056 10.2988 106.466 10.6016 107.091 10.6016C107.716 10.6016 108.146 10.2988 108.146 9.78125C108.146 9.25391 107.716 8.94141 107.091 8.94141ZM111.964 6.04102V11.6953H110.88V10.6602H109.571V9.79102H110.88V8.92188H109.581V8.04297H110.88V6.04102H111.964ZM108.995 11.793C110.86 11.793 112.013 12.3594 112.013 13.3262C112.013 14.2832 110.86 14.8594 108.995 14.8594C107.13 14.8594 105.978 14.2832 105.978 13.3262C105.978 12.3594 107.13 11.793 108.995 11.793ZM108.995 12.623C107.804 12.623 107.12 12.8574 107.12 13.3262C107.12 13.7852 107.804 14.0293 108.995 14.0293C110.177 14.0293 110.851 13.7852 110.851 13.3262C110.851 12.8574 110.177 12.623 108.995 12.623Z" fill="#0062FE"/>
<defs>
<linearGradient id="paint0_linear_1_11805" x1="12.0328" y1="11.5292" x2="12.0328" y2="6.38304" gradientUnits="userSpaceOnUse">
<stop offset="0.416667" stop-color="#0062FE"/>
<stop offset="1" stop-color="white"/>
</linearGradient>
</defs>
</svg>
