<svg width="15" height="18" viewBox="0 0 15 18" fill="none" xmlns="http://www.w3.org/2000/svg">
<path d="M13.7499 14.0832L11.7499 10.9998C11.5832 10.7498 11.3749 10.5832 11.0832 10.5415C10.7916 10.4998 10.5416 10.5415 10.2916 10.7082C10.2499 10.7498 9.16655 11.4582 8.62489 11.7915C8.58322 11.7498 8.54155 11.7082 8.49989 11.6665C8.37489 11.5415 6.66655 9.62485 6.04155 8.41652C5.74989 7.87485 5.58322 7.37485 5.45822 6.91652C5.95822 6.58318 7.12489 5.83318 7.12489 5.83318C7.62489 5.49985 7.74989 4.83318 7.41655 4.37485L5.41655 1.29152C5.24989 1.04152 5.04155 0.874849 4.74989 0.833183C4.45822 0.749849 2.99989 1.62485 2.16655 2.16652C1.66655 2.45818 1.33322 2.91652 1.12489 3.54152C0.833219 4.49985 0.95822 5.45818 1.08322 6.16652C1.20822 7.04152 1.41655 7.79152 1.70822 8.49985C2.79155 11.4165 4.54155 13.8332 6.87489 15.6249C7.83322 16.3749 8.70822 16.8332 9.58322 17.0415C9.74989 17.0832 9.91655 17.1249 10.1249 17.1249C10.2082 17.1249 10.3332 17.1249 10.4166 17.1249C10.9582 17.1249 11.4166 16.9582 11.8749 16.6249L12.0416 16.4999C13.8332 15.2082 13.9999 14.9999 14.0416 14.8332C13.9582 14.6249 13.8749 14.3332 13.7499 14.0832Z" fill="#0062FE"/>
</svg>
