<svg width="40" height="40" viewBox="0 0 40 40" fill="none" xmlns="http://www.w3.org/2000/svg">
<path d="M27.334 29.8332H15.4173C14.6673 29.8332 14.084 29.2498 14.084 28.4998V9.24984C14.084 8.49984 14.6673 7.9165 15.4173 7.9165H27.334C28.084 7.9165 28.6673 8.49984 28.6673 9.24984V28.4998C28.6673 29.2498 28.084 29.8332 27.334 29.8332Z" fill="#26597C"/>
<path d="M20.25 29.833H9.08333C8.5 29.833 8 29.333 8 28.7497V14.6663C8 14.083 8.5 13.583 9.08333 13.583H20.25C20.8333 13.583 21.3333 14.083 21.3333 14.6663V28.7497C21.4167 29.333 20.9167 29.833 20.25 29.833Z" fill="#88D3F3"/>
<path d="M15.5 17.2498H10.6667C10.3333 17.2498 10 16.9998 10 16.5832C10 16.2498 10.25 15.9165 10.6667 15.9165H15.5C15.8333 15.9165 16.1667 16.1665 16.1667 16.5832C16.1667 16.9998 15.8333 17.2498 15.5 17.2498Z" fill="white"/>
<path d="M13.4163 20.1663H10.7497C10.4163 20.1663 10.083 19.9163 10.083 19.4997C10.083 19.1663 10.333 18.833 10.7497 18.833H13.4163C13.7497 18.833 14.083 19.083 14.083 19.4997C13.9997 19.9163 13.7497 20.1663 13.4163 20.1663Z" fill="white"/>
<path d="M30.5003 32.0832C33.4458 32.0832 35.8337 29.6954 35.8337 26.7498C35.8337 23.8043 33.4458 21.4165 30.5003 21.4165C27.5548 21.4165 25.167 23.8043 25.167 26.7498C25.167 29.6954 27.5548 32.0832 30.5003 32.0832Z" fill="#0062FE"/>
<path d="M29.8337 29.0832C29.667 29.0832 29.5003 28.9998 29.417 28.9165L27.667 27.1665C27.417 26.9165 27.417 26.4998 27.667 26.3332C27.917 26.0832 28.3337 26.0832 28.5003 26.3332L29.8337 27.6665L32.3337 25.1665C32.5837 24.9165 33.0003 24.9165 33.167 25.1665C33.417 25.4165 33.417 25.8332 33.167 25.9998L30.3337 28.9165C30.167 28.9998 30.0003 29.0832 29.8337 29.0832Z" fill="white"/>
<path d="M11.5003 24.4998L8.41699 21.9165C8.16699 21.7498 7.83366 21.7498 7.58366 21.9165L4.50033 24.4998C4.33366 24.6665 4.16699 24.9165 4.16699 25.2498V28.9165C4.16699 29.3332 4.58366 29.7498 5.08366 29.7498H11.0003C11.5003 29.7498 11.917 29.3332 11.917 28.8332V25.1665C11.8337 24.9165 11.667 24.6665 11.5003 24.4998Z" fill="#4CAEAC"/>
</svg>
