<svg width="20" height="20" viewBox="0 0 20 20" fill="none" xmlns="http://www.w3.org/2000/svg">
<path d="M10.0199 1.6665C5.42367 1.6665 1.66675 4.86389 1.66675 8.78068C1.66675 11.4585 3.42531 13.8965 6.22302 15.1355C5.90328 15.775 5.46364 16.3745 4.86413 16.894C4.62433 17.0939 4.58436 17.3736 4.70426 17.6534C4.82416 17.8932 5.024 18.0131 5.2638 18.0131C5.30377 18.0131 5.34374 18.0131 5.34374 18.0131C6.42285 17.8533 8.42122 17.3736 10.1398 15.9348C14.6961 15.8549 18.3331 12.6975 18.3331 8.82065C18.3731 4.86389 14.6161 1.6665 10.0199 1.6665Z" fill="#0062FE"/>
<path d="M6.74253 9.82003C7.16192 9.82003 7.50191 9.48004 7.50191 9.06065C7.50191 8.64125 7.16192 8.30127 6.74253 8.30127C6.32314 8.30127 5.98315 8.64125 5.98315 9.06065C5.98315 9.48004 6.32314 9.82003 6.74253 9.82003Z" fill="white"/>
<path d="M10.0199 9.82003C10.4393 9.82003 10.7793 9.48004 10.7793 9.06065C10.7793 8.64125 10.4393 8.30127 10.0199 8.30127C9.60048 8.30127 9.2605 8.64125 9.2605 9.06065C9.2605 9.48004 9.60048 9.82003 10.0199 9.82003Z" fill="white"/>
<path d="M13.3373 9.82003C13.7566 9.82003 14.0966 9.48004 14.0966 9.06065C14.0966 8.64125 13.7566 8.30127 13.3373 8.30127C12.9179 8.30127 12.5779 8.64125 12.5779 9.06065C12.5779 9.48004 12.9179 9.82003 13.3373 9.82003Z" fill="white"/>
</svg>
