<svg width="28" height="28" viewBox="0 0 28 28" fill="none" xmlns="http://www.w3.org/2000/svg">
<path d="M14.8663 4.9424C14.3852 4.57486 13.7117 4.57486 13.2306 4.9424L5.62919 11.1906C5.05187 11.7419 4.66699 12.523 4.66699 13.304V22.079C4.66699 23.0898 5.53297 23.9167 6.59139 23.9167H21.4093C22.4677 23.9167 23.3337 23.0898 23.3337 22.079V13.304C23.3337 12.523 22.9969 11.7419 22.3715 11.1906L14.8663 4.9424Z" fill="#262626" stroke="#262626" stroke-width="1.8" stroke-miterlimit="10" stroke-linecap="round" stroke-linejoin="round"/>
<path d="M10.0693 17.6743C11.0375 18.6909 12.4415 19.3203 13.9906 19.3203C15.5397 19.3203 16.8952 18.6909 17.9119 17.6743" fill="#262626"/>
<path d="M10.0693 17.6743C11.0375 18.6909 12.4415 19.3203 13.9906 19.3203C15.5397 19.3203 16.8952 18.6909 17.9119 17.6743" stroke="white" stroke-width="1.8" stroke-miterlimit="10" stroke-linecap="round" stroke-linejoin="round"/>
</svg>
