<svg width="48" height="48" viewBox="0 0 48 48" fill="none" xmlns="http://www.w3.org/2000/svg">
<path d="M31.3542 7H9.61751C8.13805 7 7 8.13805 7 9.61751V36.3616C7 37.8411 8.13805 38.9791 9.61751 38.9791H24.0707C24.7535 38.9791 25.4364 38.7515 25.8916 38.1825L33.1751 30.899C33.6303 30.4438 33.9717 29.7609 33.9717 29.0781V9.61751C33.9717 8.13805 32.8337 7 31.3542 7Z" fill="#E6EBEF"/>
<path d="M15.3077 15.8765C16.6734 15.8765 17.8114 14.7385 17.8114 13.3728C17.8114 12.0072 16.6734 10.8691 15.3077 10.8691C13.9421 10.8691 12.804 12.0072 12.804 13.3728C12.804 14.7385 13.9421 15.8765 15.3077 15.8765Z" fill="#BCCAD3"/>
<path d="M16.6734 16.9009H13.8283C12.1212 16.9009 10.6418 18.3803 10.6418 20.0874V20.315C10.6418 20.5426 10.7556 20.6564 10.9832 20.6564H19.5185C19.7462 20.6564 19.86 20.5426 19.86 20.315V20.0874C19.86 18.2665 18.4943 16.9009 16.6734 16.9009Z" fill="#BCCAD3"/>
<path fill-rule="evenodd" clip-rule="evenodd" d="M37.0445 29.192V27.7126C37.0445 26.1193 35.6788 24.7536 34.0855 24.7536C32.4923 24.7536 31.1266 26.1193 31.1266 27.7126V29.192H37.0445ZM28.8505 29.192V27.7126C28.8505 24.8674 31.2404 22.4775 34.0855 22.4775C36.9307 22.4775 39.3206 24.8674 39.3206 27.7126V29.192H40.231C41.369 29.192 42.2794 30.1025 42.2794 31.2405V38.0688C42.1656 39.2068 41.2552 40.1173 40.1171 40.1173H28.0538C26.9158 40.1173 26.0054 39.2068 26.0054 38.0688V31.2405C26.0054 30.1025 26.9158 29.192 28.0538 29.192H28.8505Z" fill="#4D5A70"/>
</svg>
