<svg width="20" height="20" viewBox="0 0 20 20" fill="none" xmlns="http://www.w3.org/2000/svg">
<g clip-path="url(#clip0_1_5699)">
<path d="M9.99982 12.6573C12.1884 12.6573 13.9625 10.8832 13.9625 8.69464C13.9625 6.5061 12.1884 4.73193 9.99982 4.73193C7.81127 4.73193 6.03711 6.5061 6.03711 8.69464C6.03711 10.8832 7.81127 12.6573 9.99982 12.6573Z" fill="white"/>
<path d="M9.99968 1.93457C6.31669 1.93457 3.33301 4.91826 3.33301 8.60124C3.33301 13.2166 9.99968 18.0651 9.99968 18.0651C9.99968 18.0651 16.6664 13.2166 16.6664 8.60124C16.6664 4.91826 13.6827 1.93457 9.99968 1.93457ZM9.99968 10.9789C8.60108 10.9789 7.43558 9.85999 7.43558 8.41476C7.43558 7.01616 8.55446 5.85066 9.99968 5.85066C11.4449 5.85066 12.5638 6.96954 12.5638 8.41476C12.5638 9.85999 11.3983 10.9789 9.99968 10.9789Z" fill="#0062FE"/>
</g>
<defs>
<clipPath id="clip0_1_5699">
<rect width="20" height="20" fill="white"/>
</clipPath>
</defs>
</svg>
