<svg width="18" height="18" viewBox="0 0 18 18" fill="none" xmlns="http://www.w3.org/2000/svg">
<path d="M15.6001 5.85C15.6001 5.7 15.5251 5.55 15.4501 5.4375L12.9 2.8875C12.675 2.6625 12.3375 2.6625 12.1125 2.8875L3.52505 11.5125C3.45005 11.5875 3.37505 11.7375 3.37505 11.85L3.11255 14.6625C3.11255 14.8125 3.15005 15 3.26255 15.1125C3.37505 15.225 3.52505 15.2625 3.67505 15.2625H3.71255L6.48755 15C6.63755 15 6.75005 14.925 6.82505 14.85L13.3876 8.2875L15.4126 6.2625C15.5626 6.15 15.6001 6 15.6001 5.85ZM6.18755 13.9125L4.27505 14.0625L4.46255 12.15L10.5 6.1125L12.2626 7.875L6.18755 13.9125ZM13.05 7.0875L11.2876 5.325L12.525 4.0875L14.2876 5.85L13.05 7.0875Z" fill="#868686"/>
</svg>
