<svg width="28" height="28" viewBox="0 0 28 28" fill="none" xmlns="http://www.w3.org/2000/svg">
<path fill-rule="evenodd" clip-rule="evenodd" d="M21.6417 16.6836C21.6417 17.617 22.1084 18.492 22.9251 18.9586C23.2167 19.1336 23.3917 19.367 23.4501 19.717V20.242C23.4501 20.7086 23.0417 21.117 22.5751 21.117H17.5001C17.3834 22.867 15.9251 24.3253 14.0584 24.3253C12.1917 24.3253 10.7334 22.9253 10.6167 21.117H5.4834C5.01673 21.117 4.6084 20.7086 4.6084 20.242V19.7753C4.6084 19.4836 4.7834 19.192 5.07507 19.017C5.95007 18.5503 6.47506 17.6753 6.47506 16.6836V11.2586C6.47506 7.05863 9.85841 3.67529 14.0584 3.67529C18.2584 3.67529 21.6417 7.05863 21.6417 11.2586V16.6836ZM12.3667 21.117C12.4834 21.9336 13.1834 22.5753 14.0584 22.5753C14.8751 22.5753 15.5751 21.9336 15.6917 21.117H12.3667ZM8.16674 16.6836C8.16674 17.617 7.87507 18.5503 7.29174 19.3086H20.7084C20.1834 18.5503 19.8334 17.6753 19.8334 16.6836V11.2586C19.8334 8.05029 17.2084 5.42529 14.0001 5.42529C10.7917 5.42529 8.16674 8.05029 8.16674 11.2586V16.6836Z" fill="#262626"/>
</svg>
