<svg width="40" height="40" viewBox="0 0 40 40" fill="none" xmlns="http://www.w3.org/2000/svg">
<path d="M19.9993 22.3332C21.8403 22.3332 23.3327 20.8408 23.3327 18.9998C23.3327 17.1589 21.8403 15.6665 19.9993 15.6665C18.1584 15.6665 16.666 17.1589 16.666 18.9998C16.666 20.8408 18.1584 22.3332 19.9993 22.3332Z" fill="white"/>
<path d="M19.9994 13.333C16.916 13.333 14.416 15.833 14.416 18.9163C14.416 22.083 18.3327 25.4997 19.5827 26.4997C19.8327 26.6663 20.166 26.6663 20.416 26.4997C21.666 25.4997 25.5827 22.1663 25.5827 18.9163C25.5827 15.833 23.0827 13.333 19.9994 13.333ZM19.9994 20.9163C18.8327 20.9163 17.916 19.9997 17.916 18.833C17.916 17.6663 18.8327 16.7497 19.9994 16.7497C21.166 16.7497 22.0827 17.6663 22.0827 18.833C22.166 19.9997 21.166 20.9163 19.9994 20.9163Z" fill="#FEB800"/>
<path d="M7.69297 15.472C7.13799 15.472 6.58301 15.0095 6.58301 14.362V10.0147C6.58301 8.53471 7.78547 7.23975 9.35792 7.23975H13.7053C14.2603 7.23975 14.8153 7.70223 14.8153 8.34971C14.8153 8.99719 14.2603 9.45968 13.7053 9.45968H9.35792C9.08043 9.45968 8.80294 9.73717 8.80294 10.0147V14.362C8.80294 15.0095 8.34045 15.472 7.69297 15.472Z" fill="#D2DBE1"/>
<path d="M32.3899 15.472C31.8349 15.472 31.2799 15.0095 31.2799 14.362V10.0147C31.2799 9.73717 31.0024 9.45968 30.7249 9.45968H26.3775C25.8226 9.45968 25.2676 8.99719 25.2676 8.34971C25.2676 7.70223 25.7301 7.23975 26.3775 7.23975H30.7249C32.2049 7.23975 33.4998 8.44221 33.4998 10.0147V14.362C33.4073 15.0095 32.9448 15.472 32.3899 15.472Z" fill="#D2DBE1"/>
<path d="M30.7249 32.6766H26.3775C25.8226 32.6766 25.2676 32.2141 25.2676 31.5666C25.2676 31.0116 25.7301 30.4567 26.3775 30.4567H30.7249C31.0024 30.4567 31.2799 30.1792 31.2799 29.9017V25.5543C31.2799 24.9993 31.7424 24.4443 32.3899 24.4443C33.0373 24.4443 33.4998 24.9068 33.4998 25.5543V29.9017C33.4073 31.4741 32.2049 32.6766 30.7249 32.6766Z" fill="#D2DBE1"/>
<path d="M13.7053 32.6766H9.35792C7.87797 32.6766 6.58301 31.4741 6.58301 29.9017V25.5543C6.58301 24.9993 7.04549 24.4443 7.69297 24.4443C8.24795 24.4443 8.80294 24.9068 8.80294 25.5543V29.9017C8.80294 30.1792 9.08043 30.4567 9.35792 30.4567H13.7053C14.2603 30.4567 14.8153 30.9191 14.8153 31.5666C14.8153 32.2141 14.2603 32.6766 13.7053 32.6766Z" fill="#D2DBE1"/>
</svg>
