<svg width="24" height="24" viewBox="0 0 24 24" fill="none" xmlns="http://www.w3.org/2000/svg">
<path d="M15.7004 11.2002H8.35039C7.95039 11.2002 7.65039 11.5002 7.65039 11.9002V20.8502C7.65039 21.1002 7.80039 21.3502 8.00039 21.4502C8.10039 21.5002 8.25039 21.5502 8.35039 21.5502C8.45039 21.5502 8.60039 21.5002 8.70039 21.4502L12.0504 19.6502L15.4004 21.4502C15.6004 21.5502 15.9004 21.5502 16.1004 21.4502C16.3004 21.3002 16.4504 21.1002 16.4504 20.8502V11.9002C16.4004 11.5002 16.0504 11.2002 15.7004 11.2002Z" fill="#1F519F"/>
<path d="M12.0002 18.0502C16.1699 18.0502 19.5502 14.6699 19.5502 10.5002C19.5502 6.33045 16.1699 2.9502 12.0002 2.9502C7.83044 2.9502 4.4502 6.33045 4.4502 10.5002C4.4502 14.6699 7.83044 18.0502 12.0002 18.0502Z" fill="#DB997F"/>
<path d="M12.0001 16.4001C15.2586 16.4001 17.9001 13.7586 17.9001 10.5001C17.9001 7.24162 15.2586 4.6001 12.0001 4.6001C8.74162 4.6001 6.1001 7.24162 6.1001 10.5001C6.1001 13.7586 8.74162 16.4001 12.0001 16.4001Z" fill="#DDB2A2"/>
<path d="M10.4003 11.9C10.6003 12 10.8003 12.05 11.0003 12.15C11.2003 12.2 11.4503 12.25 11.6503 12.25C12.3003 12.25 12.6003 12 12.6003 11.55C12.6003 11.4 12.5503 11.3 12.5503 11.2C12.5003 11.1 12.4503 11.05 12.3503 11C12.2503 10.95 12.1503 10.9 12.0503 10.9C11.9503 10.9 11.8003 10.85 11.7003 10.85H10.8503V10.05H11.7003C11.8003 10.05 11.9003 10.05 12.0003 10C12.1003 10 12.1503 9.95 12.2503 9.9C12.3003 9.85 12.4003 9.8 12.4503 9.7C12.5003 9.6 12.5003 9.5 12.5003 9.35C12.5003 9.15 12.4503 9 12.3003 8.9C12.1503 8.8 12.0003 8.75 11.8003 8.75C11.6503 8.75 11.4503 8.8 11.3003 8.8C11.1003 8.85 10.9003 8.95 10.6503 9.05L10.4003 8.35C10.6003 8.25 10.8503 8.15 11.1003 8.1C11.3503 8 11.6503 8 12.0003 8C12.3003 8 12.5503 8.05 12.8003 8.1C13.0003 8.15 13.2003 8.25 13.4003 8.4C13.5503 8.5 13.6503 8.65 13.7503 8.8C13.8503 8.95 13.8503 9.15 13.8503 9.3C13.8503 9.5 13.8003 9.7 13.7503 9.85C13.6503 10 13.5503 10.15 13.3503 10.3C13.5503 10.4 13.7003 10.6 13.8503 10.8C13.9503 11 14.0503 11.25 14.0503 11.55C14.0503 11.8 14.0003 12 13.9003 12.2C13.8003 12.4 13.6503 12.55 13.4503 12.7C13.2503 12.85 13.0503 12.95 12.8003 13C12.5503 13.05 12.2503 13.1 11.9503 13.1C11.8003 13.1 11.6503 13.1 11.5003 13.05C11.3503 13 11.2003 13 11.0503 12.95C10.9003 12.9 10.7503 12.85 10.6503 12.8C10.5003 12.75 10.4003 12.7 10.3003 12.65L10.4003 11.9Z" fill="white"/>
</svg>
