<svg width="24" height="24" viewBox="0 0 24 24" fill="none" xmlns="http://www.w3.org/2000/svg">
<path d="M11.9999 19.85C16.3353 19.85 19.8499 16.3354 19.8499 12C19.8499 7.66456 16.3353 4.14999 11.9999 4.14999C7.66447 4.14999 4.1499 7.66456 4.1499 12C4.1499 16.3354 7.66447 19.85 11.9999 19.85Z" fill="#00AFA5"/>
<path d="M11.9998 16.3C10.4498 16.3 8.9998 15.7 7.8998 14.55C7.5998 14.25 7.5998 13.8 7.8998 13.5C8.1998 13.2 8.6498 13.2 8.9498 13.5C9.7498 14.35 10.8498 14.8 11.9998 14.8C13.1498 14.8 14.2498 14.35 15.0498 13.5C15.3498 13.2 15.7998 13.2 16.0998 13.5C16.3998 13.8 16.3998 14.25 16.0998 14.55C14.9998 15.7 13.5498 16.3 11.9998 16.3Z" fill="white"/>
</svg>
