<svg width="40" height="40" viewBox="0 0 40 40" fill="none" xmlns="http://www.w3.org/2000/svg">
<path d="M24.9163 7.5H8.99968C7.91634 7.5 7.08301 8.33333 7.08301 9.41667V29C7.08301 30.0833 7.91634 30.9167 8.99968 30.9167H19.583C20.083 30.9167 20.583 30.75 20.9163 30.3333L26.2497 25C26.583 24.6667 26.833 24.1667 26.833 23.6667V9.5C26.833 8.41667 25.9997 7.5 24.9163 7.5Z" fill="#FFDAC7"/>
<path d="M19.5827 12.75H10.916C10.3327 12.75 9.91602 12.3333 9.91602 11.75C9.91602 11.1667 10.3327 10.75 10.916 10.75H19.5827C20.166 10.75 20.5827 11.1667 20.5827 11.75C20.5827 12.3333 20.166 12.75 19.5827 12.75Z" fill="#F4A37F"/>
<path d="M15.4993 17.25H10.916C10.3327 17.25 9.91602 16.8333 9.91602 16.25C9.91602 15.6667 10.3327 15.25 10.916 15.25H15.4993C16.0827 15.25 16.4993 15.6667 16.4993 16.25C16.4993 16.8333 16.0827 17.25 15.4993 17.25Z" fill="#F4A37F"/>
<path d="M32.583 30.6665L30.4163 28.4998C31.7497 26.4998 31.583 23.6665 29.7497 21.9165C27.6663 19.8332 24.333 19.8332 22.333 21.9165C20.2497 23.9998 20.2497 27.3332 22.333 29.3332C23.333 30.3332 24.6663 30.8332 26.083 30.8332C27.083 30.8332 28.083 30.5832 28.9997 29.9998L31.1663 32.1665C31.333 32.3332 31.6663 32.4998 31.9163 32.4998C32.1663 32.4998 32.4163 32.4165 32.6663 32.1665C32.9997 31.7498 32.9997 31.0832 32.583 30.6665ZM23.833 27.8332C22.583 26.5832 22.583 24.5832 23.833 23.3332C24.4163 22.7498 25.2497 22.4165 26.083 22.4165C26.9163 22.4165 27.6663 22.7498 28.333 23.3332C29.583 24.5832 29.583 26.5832 28.333 27.8332C27.083 29.0832 25.083 29.0832 23.833 27.8332Z" fill="#E9662D"/>
</svg>
