<svg width="48" height="48" viewBox="0 0 48 48" fill="none" xmlns="http://www.w3.org/2000/svg">
<path d="M30.3542 7H8.61751C7.13805 7 6 8.13805 6 9.61751V36.3616C6 37.8411 7.13805 38.9791 8.61751 38.9791H23.0707C23.7535 38.9791 24.4364 38.7515 24.8916 38.1825L32.1751 30.899C32.6303 30.4438 32.9717 29.7609 32.9717 29.0781V9.73131C32.9717 8.13805 31.8337 7 30.3542 7Z" fill="#E6EBEF"/>
<path d="M14.3077 15.8765C15.6734 15.8765 16.8114 14.7385 16.8114 13.3728C16.8114 12.0072 15.6734 10.8691 14.3077 10.8691C12.9421 10.8691 11.804 12.0072 11.804 13.3728C11.804 14.7385 12.9421 15.8765 14.3077 15.8765Z" fill="#BCCAD3"/>
<path d="M15.7872 16.7871H12.9421C11.235 16.7871 9.75555 18.2666 9.75555 19.9736V20.2012C9.75555 20.4289 9.86936 20.5427 10.097 20.5427H18.6323C18.8599 20.5427 18.9737 20.4289 18.9737 20.2012V19.9736C18.9737 18.2666 17.4943 16.7871 15.7872 16.7871Z" fill="#BCCAD3"/>
<path d="M40.8242 38.2962L37.8653 35.3373C39.6861 32.606 39.4585 28.7366 36.9548 26.3467C34.1097 23.5016 29.5575 23.5016 26.8262 26.3467C23.9811 29.1918 23.9811 33.744 26.8262 36.4753C28.1919 37.841 30.0128 38.5238 31.9474 38.5238C33.3131 38.5238 34.6787 38.1824 35.9306 37.3858L38.8895 40.3447C39.1171 40.5723 39.5723 40.7999 39.9138 40.7999C40.2552 40.7999 40.5966 40.6861 40.938 40.3447C41.3932 39.7757 41.3932 38.8652 40.8242 38.2962ZM28.8747 34.4269C27.1676 32.7198 27.1676 29.9885 28.8747 28.2814C29.6713 27.4848 30.8094 27.0296 31.9474 27.0296C33.0855 27.0296 34.1097 27.4848 35.0202 28.2814C36.7272 29.9885 36.7272 32.7198 35.0202 34.4269C33.3131 36.1339 30.5818 36.1339 28.8747 34.4269Z" fill="#0062FE"/>
</svg>
