<svg width="40" height="40" viewBox="0 0 40 40" fill="none" xmlns="http://www.w3.org/2000/svg">
<path d="M22.5 10.4167L14.1667 8C14 7.91667 13.75 7.91667 13.5833 8L5.74999 10.25C5.33333 10.4167 5 10.75 5 11.25V28.25C5 28.9167 5.66666 29.4167 6.33333 29.25L13.5833 27.1667C13.75 27.0833 14 27.0833 14.1667 27.1667L22.5 29.5833C22.6667 29.6667 22.9167 29.6667 23.0833 29.5833L30.9167 27.3333C31.3333 27.1667 31.6667 26.8333 31.6667 26.3333V9.25C31.6667 8.58333 31 8.08333 30.3333 8.25L23.0833 10.3333C22.8333 10.4167 22.6667 10.4167 22.5 10.4167Z" fill="#A6E2D2"/>
<path d="M5 24.2498V28.1665C5 28.8332 5.66666 29.3332 6.33333 29.1665L13.5833 27.0832C13.75 26.9998 14 26.9998 14.1667 27.0832L22.5 29.4998C22.6667 29.5832 22.9167 29.5832 23.0833 29.4998L26.75 28.4165L18.9167 18.9165L5 24.2498Z" fill="#49C4A1"/>
<path d="M31.667 26.25V14L18.917 18.9167L26.667 28.4167L30.8337 27.1667C31.3337 27.0833 31.667 26.6667 31.667 26.25Z" fill="#D9F4EC"/>
<path d="M29.4163 27.6667C31.2573 27.6667 32.7497 26.1743 32.7497 24.3333C32.7497 22.4924 31.2573 21 29.4163 21C27.5754 21 26.083 22.4924 26.083 24.3333C26.083 26.1743 27.5754 27.6667 29.4163 27.6667Z" fill="white"/>
<path d="M29.4164 18.75C26.333 18.75 23.833 21.25 23.833 24.3333C23.833 27.5 27.7497 30.9167 28.9997 31.9167C29.2497 32.0833 29.583 32.0833 29.833 31.9167C31.083 30.9167 34.9997 27.5833 34.9997 24.3333C34.9163 21.25 32.4997 18.75 29.4164 18.75ZM29.4164 26.25C28.2497 26.25 27.333 25.3333 27.333 24.1667C27.333 23 28.2497 22.0833 29.4164 22.0833C30.583 22.0833 31.4997 23 31.4997 24.1667C31.4997 25.3333 30.583 26.25 29.4164 26.25Z" fill="#317864"/>
</svg>
