<svg width="20" height="20" viewBox="0 0 20 20" fill="none" xmlns="http://www.w3.org/2000/svg">
<g clip-path="url(#clip0_13_10847)">
<path fill-rule="evenodd" clip-rule="evenodd" d="M10 13.0002C9.83333 13.0002 9.66667 12.9585 9.54167 12.8335L6.20833 9.4585C5.95833 9.2085 5.95833 8.8335 6.20833 8.5835C6.45833 8.3335 6.83333 8.3335 7.08333 8.5835L9.41667 10.9168V4.3335C9.41667 4.00016 9.70833 3.7085 10.0417 3.7085C10.375 3.7085 10.6667 4.00016 10.6667 4.3335V10.8752L12.9583 8.5835C13.2083 8.3335 13.5833 8.3335 13.8333 8.5835C14.0833 8.8335 14.0833 9.2085 13.8333 9.4585L10.4583 12.8335C10.3333 12.9585 10.1667 13.0002 10 13.0002ZM16.375 9.54183C16.375 9.2085 16.6667 8.91683 17 8.91683C17.3333 8.91683 17.625 9.2085 17.625 9.54183V16.0835C17.625 16.4168 17.3333 16.7085 17 16.7085H3C2.66667 16.7085 2.375 16.4168 2.375 16.0835V9.54183C2.375 9.2085 2.66667 8.91683 3 8.91683C3.33333 8.91683 3.625 9.2085 3.625 9.54183V15.4585H16.375V9.54183Z" fill="#0062FE"/>
</g>
<defs>
<clipPath id="clip0_13_10847">
<rect width="20" height="20" fill="white"/>
</clipPath>
</defs>
</svg>
