<svg width="16" height="16" viewBox="0 0 16 16" fill="none" xmlns="http://www.w3.org/2000/svg">
<path fill-rule="evenodd" clip-rule="evenodd" d="M8 14C11.3137 14 14 11.3137 14 8C14 4.68629 11.3137 2 8 2C4.68629 2 2 4.68629 2 8C2 11.3137 4.68629 14 8 14Z" fill="#868686"/>
<path d="M8.52729 8.00003L10.2316 6.29568C10.3737 6.15365 10.3737 5.93046 10.2316 5.78843C10.0896 5.6464 9.86642 5.6464 9.72439 5.78843L7.99976 7.49278L6.29541 5.76814C6.15338 5.62611 5.93019 5.62611 5.78816 5.76814C5.64613 5.91017 5.64613 6.13336 5.78816 6.27539L7.49251 8.00003L5.78816 9.70437C5.64613 9.8464 5.64613 10.0696 5.78816 10.2116C5.84903 10.2928 5.93019 10.3334 6.03164 10.3334C6.13309 10.3334 6.21425 10.2928 6.29541 10.2319L7.99976 8.52756L9.7041 10.2319C9.78526 10.3131 9.86642 10.3334 9.96787 10.3334C10.0693 10.3334 10.1505 10.2928 10.2316 10.2319C10.3737 10.0899 10.3737 9.86669 10.2316 9.72466L8.52729 8.00003Z" fill="white"/>
</svg>
