<svg width="24" height="24" viewBox="0 0 24 24" fill="none" xmlns="http://www.w3.org/2000/svg">
<path d="M11.9999 19.85C16.3353 19.85 19.8499 16.3355 19.8499 12C19.8499 7.66459 16.3353 4.15002 11.9999 4.15002C7.66447 4.15002 4.1499 7.66459 4.1499 12C4.1499 16.3355 7.66447 19.85 11.9999 19.85Z" fill="#939393"/>
<path d="M15.55 15.8C15.35 15.8 15.15 15.7 15 15.55C14.2 14.7 13.1 14.25 11.95 14.25C10.8 14.25 9.7 14.7 8.9 15.55C8.6 15.85 8.15 15.85 7.85 15.55C7.55 15.25 7.55 14.8 7.85 14.5C8.95 13.35 10.4 12.75 11.95 12.75C13.5 12.75 14.95 13.35 16.05 14.5C16.35 14.8 16.35 15.25 16.05 15.55C15.95 15.75 15.75 15.8 15.55 15.8Z" fill="white"/>
</svg>
