<svg width="24" height="24" viewBox="0 0 24 24" fill="none" xmlns="http://www.w3.org/2000/svg">
<path d="M15.7004 11.2002H8.35039C7.95039 11.2002 7.65039 11.5002 7.65039 11.9002V20.8502C7.65039 21.1002 7.80039 21.3502 8.00039 21.4502C8.10039 21.5002 8.25039 21.5502 8.35039 21.5502C8.45039 21.5502 8.60039 21.5002 8.70039 21.4502L12.0504 19.6502L15.4004 21.4502C15.6004 21.5502 15.9004 21.5502 16.1004 21.4502C16.3004 21.3002 16.4504 21.1002 16.4504 20.8502V11.9002C16.4004 11.5502 16.0504 11.2002 15.7004 11.2002Z" fill="#1F519F"/>
<path d="M12.0002 18.0502C16.1699 18.0502 19.5502 14.6699 19.5502 10.5002C19.5502 6.33045 16.1699 2.9502 12.0002 2.9502C7.83045 2.9502 4.4502 6.33045 4.4502 10.5002C4.4502 14.6699 7.83045 18.0502 12.0002 18.0502Z" fill="#A7BAC1"/>
<path d="M12.0001 16.4001C15.2586 16.4001 17.9001 13.7586 17.9001 10.5001C17.9001 7.24162 15.2586 4.6001 12.0001 4.6001C8.74162 4.6001 6.1001 7.24162 6.1001 10.5001C6.1001 13.7586 8.74162 16.4001 12.0001 16.4001Z" fill="#C6D4DF"/>
<path d="M10.25 12.9004V12.2504C10.7 11.8504 11.1 11.5004 11.4 11.2504C11.7 10.9504 11.9 10.7504 12.05 10.5004C12.2 10.3004 12.3 10.1004 12.35 9.95039C12.4 9.80039 12.4 9.65039 12.4 9.55039C12.4 9.30039 12.35 9.10039 12.2 8.95039C12.05 8.80039 11.9 8.75039 11.65 8.75039C11.35 8.75039 11.15 8.80039 10.95 8.90039C10.75 9.00039 10.6 9.10039 10.45 9.20039L10.25 8.45039C10.45 8.30039 10.7 8.15039 11 8.05039C11.3 7.95039 11.6 7.90039 11.85 7.90039C12.15 7.90039 12.4 7.95039 12.6 8.00039C12.8 8.10039 13 8.20039 13.15 8.35039C13.3 8.50039 13.45 8.65039 13.5 8.85039C13.6 9.05039 13.6 9.25039 13.6 9.50039C13.6 9.75039 13.55 9.95039 13.45 10.2004C13.35 10.4504 13.2 10.6504 13.05 10.9004C12.9 11.1504 12.7 11.3504 12.5 11.5504C12.3 11.7504 12.1 11.9504 11.9 12.1004H13.65V12.9004H10.25Z" fill="white"/>
</svg>
