<svg width="28" height="28" viewBox="0 0 28 28" fill="none" xmlns="http://www.w3.org/2000/svg">
<g clip-path="url(#clip0_13_7304)">
<path fill-rule="evenodd" clip-rule="evenodd" d="M23.7416 14.7582C23.7416 14.9915 23.8582 15.2832 24.0916 15.3999C25.2582 16.0999 25.6082 17.5582 25.0249 18.7832L23.5082 21.2915C23.1582 21.8165 22.6332 22.2249 21.9916 22.3999C21.3499 22.5749 20.7082 22.5165 20.1249 22.1665C19.8916 22.0499 19.5999 22.0499 19.3666 22.2249C19.0749 22.4582 18.7249 22.6332 18.3749 22.8082L18.3749 22.8082C18.1416 22.9249 17.9666 23.1582 17.9666 23.4499C17.9666 24.7915 16.8582 25.8999 15.5166 25.8999H12.5999C11.2582 25.8999 10.1499 24.7915 10.1499 23.4499C10.1499 23.1582 9.9749 22.9249 9.74157 22.8082L9.74154 22.8082C9.39155 22.6332 9.04156 22.4582 8.7499 22.2249C8.51657 22.0499 8.2249 22.0499 7.99157 22.1665C7.40823 22.4582 6.76657 22.5749 6.1249 22.3999C5.48323 22.2249 4.95823 21.8749 4.60823 21.2915L3.09157 18.7832C2.39157 17.6165 2.7999 16.1582 3.96657 15.4582H4.0249C4.1999 15.3415 4.31657 15.0499 4.31657 14.8165C4.25823 14.5832 4.25823 14.2915 4.25823 14.0582C4.25823 13.9042 4.27449 13.7665 4.28983 13.6365C4.30356 13.5202 4.31657 13.41 4.31657 13.2999C4.31657 13.0665 4.1999 12.7749 3.96657 12.6582C3.44157 12.3082 3.03323 11.7832 2.85823 11.1415C2.68323 10.4999 2.74157 9.8582 3.09157 9.27487L4.60823 6.76654C4.95823 6.24154 5.48323 5.8332 6.1249 5.6582C6.76657 5.4832 7.40823 5.54154 7.99157 5.89154C8.2249 6.0082 8.51657 6.0082 8.7499 5.8332C9.04157 5.59987 9.39157 5.42487 9.74157 5.24987C9.9749 5.1332 10.1499 4.89987 10.1499 4.6082C10.1499 3.26654 11.2582 2.1582 12.5999 2.1582H15.5166C16.8582 2.1582 17.9666 3.26654 17.9666 4.6082C17.9666 4.89987 18.1416 5.1332 18.3749 5.24987C18.7249 5.42487 19.0749 5.59987 19.3666 5.8332C19.5999 6.0082 19.8916 6.0082 20.1249 5.89154C21.2916 5.19154 22.7499 5.59987 23.4499 6.76654L24.9666 9.27487C25.6666 10.4415 25.2582 11.8999 24.0916 12.5999H24.0332C23.8582 12.7165 23.7416 13.0082 23.7416 13.2415C23.7999 13.4749 23.7999 13.7665 23.7999 13.9998V13.9999C23.7999 14.1538 23.7836 14.2915 23.7683 14.4216C23.7546 14.5379 23.7416 14.648 23.7416 14.7582ZM21.9916 13.9999V13.4165C21.9332 12.4832 22.3999 11.5499 23.2749 11.2582H23.3332C23.5666 11.0832 23.6832 10.6749 23.5082 10.3249L21.9916 7.7582C21.9332 7.64154 21.7582 7.52487 21.5832 7.46654C21.4082 7.4082 21.2332 7.4082 21.0582 7.52487C20.2416 7.99154 19.2499 7.99154 18.4332 7.46654C18.3516 7.41756 18.2746 7.36859 18.1995 7.32089C18.0064 7.19816 17.8266 7.08389 17.6166 6.99987C16.7416 6.59154 16.2166 5.71654 16.2166 4.7832C16.2166 4.37487 15.9249 4.0832 15.5166 4.0832H12.5999C12.1916 4.0832 11.8999 4.37487 11.8999 4.7832C11.8999 5.71654 11.3749 6.59154 10.4999 6.99987C10.2082 7.11654 9.91657 7.29154 9.68323 7.46654C8.86657 7.99154 7.8749 7.99154 7.05823 7.52487C6.76657 7.29154 6.2999 7.4082 6.1249 7.7582L4.60823 10.2665C4.43323 10.5582 4.49157 11.0249 4.84157 11.1999C5.5999 11.6665 6.06657 12.5415 6.00823 13.4749V14.0582V14.6415C6.1249 15.5165 5.65823 16.4499 4.84157 16.9165H4.78323C4.49157 17.0915 4.3749 17.4999 4.49157 17.7915L6.00823 20.2999C6.06657 20.4165 6.24157 20.5332 6.41657 20.5915C6.59157 20.6499 6.76657 20.6499 6.94157 20.5332C7.29156 20.2999 7.75823 20.1832 8.16657 20.1832C8.69157 20.1832 9.15823 20.2999 9.56656 20.5915C9.64819 20.6405 9.72524 20.6895 9.80028 20.7372C9.99339 20.8599 10.1732 20.9742 10.3832 21.0582C11.2582 21.4665 11.7832 22.3415 11.7832 23.2749C11.7832 23.6832 12.0749 23.9749 12.4832 23.9749H15.3999C15.8082 23.9749 16.0999 23.6832 16.0999 23.2749C16.0999 22.3415 16.6249 21.4665 17.4999 21.0582C17.7916 20.9415 18.0832 20.7665 18.3166 20.5915C19.1332 20.0665 20.1249 20.0665 20.9416 20.5332C21.1166 20.5915 21.2916 20.6499 21.4666 20.5915C21.6416 20.5915 21.7582 20.4749 21.8749 20.2999L23.3916 17.7915C23.5666 17.4999 23.5082 17.0332 23.1582 16.8582C22.3999 16.3915 21.9332 15.5165 21.9916 14.5832V13.9999ZM9.91652 13.9999C9.91652 11.7249 11.7249 9.91657 13.9999 9.91657C16.2749 9.91657 18.0832 11.7249 18.0832 13.9999C18.0832 16.2749 16.2749 18.0832 13.9999 18.0832C11.7249 18.0832 9.91652 16.2749 9.91652 13.9999ZM11.6665 13.9999C11.6665 15.2832 12.7165 16.3332 13.9999 16.3332C15.2832 16.3332 16.3332 15.2832 16.3332 13.9999C16.3332 12.7166 15.2832 11.6666 13.9999 11.6666C12.7165 11.6666 11.6665 12.7166 11.6665 13.9999Z" fill="#262626"/>
</g>
<defs>
<clipPath id="clip0_13_7304">
<rect width="28" height="28" fill="white"/>
</clipPath>
</defs>
</svg>
