<svg width="24" height="24" viewBox="0 0 24 24" fill="none" xmlns="http://www.w3.org/2000/svg">
<path d="M15.6504 11.2002H8.35039C7.95039 11.2002 7.65039 11.5002 7.65039 11.9002V20.8502C7.65039 21.1002 7.80039 21.3502 8.00039 21.4502C8.10039 21.5002 8.25039 21.5502 8.35039 21.5502C8.45039 21.5502 8.60039 21.5002 8.70039 21.4502L12.0504 19.6502L15.4004 21.4502C15.6004 21.5502 15.9004 21.5502 16.1004 21.4502C16.3004 21.3002 16.4504 21.1002 16.4504 20.8502V11.9002C16.4004 11.5002 16.0504 11.2002 15.6504 11.2002Z" fill="#1F519F"/>
<path d="M12.0002 18.0502C16.1699 18.0502 19.5502 14.6699 19.5502 10.5002C19.5502 6.33045 16.1699 2.9502 12.0002 2.9502C7.83045 2.9502 4.4502 6.33045 4.4502 10.5002C4.4502 14.6699 7.83045 18.0502 12.0002 18.0502Z" fill="#D2B074"/>
<path d="M12.0001 16.4001C15.2586 16.4001 17.9001 13.7586 17.9001 10.5001C17.9001 7.24162 15.2586 4.6001 12.0001 4.6001C8.74162 4.6001 6.1001 7.24162 6.1001 10.5001C6.1001 13.7586 8.74162 16.4001 12.0001 16.4001Z" fill="#E7CC8A"/>
<path d="M11.4503 9.5501H10.5503V8.8001C10.9503 8.8001 11.2503 8.7501 11.4503 8.6501C11.6503 8.5501 11.7503 8.3501 11.7503 8.1001H12.7503V12.9501H11.4503V9.5501Z" fill="white"/>
</svg>
