<svg width="18" height="18" viewBox="0 0 18 18" fill="none" xmlns="http://www.w3.org/2000/svg">
<g clip-path="url(#clip0_13_4491)">
<path fill-rule="evenodd" clip-rule="evenodd" d="M6.1498 3.75C6.2248 3.7875 6.2998 3.825 6.3373 3.8625L8.6623 6.1125C8.8873 6.3375 8.8873 6.675 8.6623 6.9C8.4373 7.125 8.0998 7.125 7.8748 6.9L6.5998 5.625V12.7875C6.5998 13.0875 6.3373 13.35 6.0373 13.35C5.7373 13.35 5.4748 13.0875 5.4748 12.7875V5.5875L4.1998 6.8625C4.0873 6.975 3.93731 7.0125 3.7873 7.0125C3.6373 7.0125 3.4873 6.975 3.3748 6.8625C3.1498 6.6375 3.1498 6.3 3.3748 6.075L5.5873 3.8625C5.6248 3.825 5.6998 3.7875 5.7748 3.75C5.8123 3.7125 5.8873 3.7125 5.9623 3.7125C5.9998 3.7125 6.0748 3.7125 6.1498 3.75ZM14.4748 11.2875C14.6998 11.0625 15.0373 11.0625 15.2623 11.2875C15.4873 11.475 15.4873 11.85 15.2623 12.0375L13.0498 14.25C13.0498 14.2732 13.0355 14.282 13.0157 14.2943C13.0034 14.3018 12.9891 14.3107 12.9748 14.325H12.9373C12.9185 14.325 12.9092 14.3344 12.8998 14.3438C12.8904 14.3531 12.881 14.3625 12.8623 14.3625H12.8248C12.7873 14.4 12.7873 14.4 12.7498 14.4H12.6373H12.5248C12.4873 14.3625 12.4873 14.3625 12.4498 14.3625H12.4123C12.3935 14.3625 12.3842 14.3531 12.3748 14.3438C12.3654 14.3344 12.356 14.325 12.3373 14.325H12.2998L12.2248 14.25L10.0123 12.0375C9.78729 11.8125 9.78729 11.475 10.0123 11.25C10.2373 11.025 10.5748 11.025 10.7998 11.25L12.0748 12.525V5.32502C12.0748 5.02502 12.3373 4.76252 12.6373 4.76252C12.9373 4.76252 13.1998 5.02502 13.1998 5.32502V12.5625L14.4748 11.2875Z" fill="#262626"/>
</g>
<defs>
<clipPath id="clip0_13_4491">
<rect width="18" height="18" fill="white"/>
</clipPath>
</defs>
</svg>
