<svg width="18" height="18" viewBox="0 0 18 18" fill="none" xmlns="http://www.w3.org/2000/svg">
<g clip-path="url(#clip0_1_7778)">
<path d="M16.1624 6.0751L14.5124 4.9876L13.9874 3.0751C13.8749 2.6626 13.4999 2.4001 13.0874 2.4376L11.0999 2.5501L9.56244 1.3126C9.22494 1.0501 8.77494 1.0501 8.43744 1.3126L6.89994 2.5501L4.91244 2.4376C4.49994 2.4001 4.12494 2.6626 4.01244 3.0751L3.48744 4.9876L1.83744 6.0751C1.49994 6.3001 1.34994 6.7501 1.49994 7.1251L2.17494 9.0001L1.46244 10.8376C1.31244 11.2126 1.46244 11.6626 1.79994 11.8876L3.44994 12.9751L3.97494 14.8876C4.08744 15.3001 4.46244 15.5626 4.87494 15.5626L6.86244 15.4501L8.39994 16.6876C8.73744 16.9501 9.18744 16.9501 9.52494 16.6876L11.0624 15.4501L13.0499 15.5626C13.4624 15.6001 13.8374 15.3001 13.9499 14.8876L14.4749 12.9751L16.1249 11.8876C16.4624 11.6626 16.6124 11.2126 16.4624 10.8376L15.8249 9.0001L16.5374 7.1626C16.6499 6.7501 16.5374 6.3001 16.1624 6.0751Z" fill="#0062FE"/>
<path d="M8.25 11.5876C8.1 11.5876 7.95 11.5501 7.8375 11.4376L5.7 9.3001C5.475 9.0751 5.475 8.7376 5.7 8.5126C5.925 8.2876 6.2625 8.2876 6.4875 8.5126L8.25 10.2751L11.475 7.0501C11.7 6.8251 12.0375 6.8251 12.2625 7.0501C12.4875 7.2751 12.4875 7.6126 12.2625 7.8376L8.6625 11.4376C8.55 11.5126 8.4 11.5876 8.25 11.5876Z" fill="white"/>
</g>
<defs>
<clipPath id="clip0_1_7778">
<rect width="18" height="18" fill="white"/>
</clipPath>
</defs>
</svg>
