<svg width="21" height="20" viewBox="0 0 21 20" fill="none" xmlns="http://www.w3.org/2000/svg">
<path fill-rule="evenodd" clip-rule="evenodd" d="M6.87482 6.24997C6.87482 8.37497 8.62482 10.0833 10.7498 10.0833C12.8748 10.0833 14.5831 8.37497 14.5831 6.24997C14.5831 4.12497 12.8748 2.41664 10.7498 2.41664C8.58315 2.41664 6.87482 4.12497 6.87482 6.24997ZM8.12482 6.2083C8.12482 4.79164 9.33315 3.62497 10.7498 3.62497C12.1665 3.62497 13.3332 4.79164 13.3332 6.2083C13.3332 7.62497 12.1665 8.79164 10.7498 8.79164C9.29148 8.79164 8.12482 7.62497 8.12482 6.2083ZM16.5415 16.1666C16.5415 16.4999 16.8332 16.7916 17.1665 16.7916C17.5415 16.7916 17.7915 16.5416 17.7915 16.1666V14.9583C17.7915 12.7083 15.9582 10.8749 13.7082 10.8749H7.74984C5.49984 10.8749 3.6665 12.7083 3.6665 14.9583V16.1666C3.6665 16.4999 3.95817 16.7916 4.2915 16.7916C4.62484 16.7916 4.9165 16.4999 4.9165 16.1666V14.9583C4.9165 13.3749 6.20817 12.1249 7.74984 12.1249H13.7082C15.2915 12.1249 16.5415 13.4166 16.5415 14.9583V16.1666Z" fill="#0062FE"/>
</svg>
