<svg width="24" height="24" viewBox="0 0 24 24" fill="none" xmlns="http://www.w3.org/2000/svg">
<path fill-rule="evenodd" clip-rule="evenodd" d="M16.1002 15.0004L19.6502 18.5504C19.9502 18.8504 19.9502 19.3004 19.7002 19.6004C19.5502 19.7504 19.3502 19.8004 19.1502 19.8004C18.9502 19.8004 18.7502 19.7504 18.6002 19.6004L15.0502 16.0504C13.8002 17.0504 12.3002 17.5504 10.8002 17.5504C9.05019 17.5504 7.3002 16.8504 6.0002 15.5504C3.3502 12.9004 3.3502 8.60039 6.0002 5.95039C8.6502 3.30039 12.9502 3.30039 15.6002 5.95039C18.0502 8.40039 18.2502 12.3504 16.1002 15.0004ZM7.05019 7.00039C5.00019 9.05039 5.00019 12.4504 7.05019 14.5004C9.10019 16.5504 12.4502 16.5504 14.5502 14.5004C16.6002 12.4504 16.6002 9.05039 14.5502 7.00039C13.5002 5.95039 12.1502 5.45039 10.8002 5.45039C9.45019 5.45039 8.10019 5.95039 7.05019 7.00039Z" fill="#868686"/>
</svg>
