<svg width="24" height="24" viewBox="0 0 24 24" fill="none" xmlns="http://www.w3.org/2000/svg">
<path fill-rule="evenodd" clip-rule="evenodd" d="M18.2001 5.85078H20.9001C21.3001 5.85078 21.6501 6.15078 21.6001 6.60078V19.5008C21.6001 19.9008 21.2501 20.2508 20.8501 20.2508H3.1001C2.7001 20.2508 2.3501 19.9008 2.3501 19.5008V6.60078C2.3501 6.20078 2.7001 5.85078 3.1001 5.85078H6.2001L8.0501 4.00078C8.2001 3.90078 8.4001 3.80078 8.6001 3.80078H15.8001C16.0001 3.80078 16.2001 3.85078 16.3501 4.00078L18.2001 5.85078ZM3.9001 18.7508H20.1501V7.35078H17.9001C17.7001 7.35078 17.5001 7.30078 17.3501 7.15078L15.5001 5.30078H8.9501L7.1001 7.15078C6.9501 7.25078 6.7501 7.35078 6.5501 7.35078H3.9001V18.7508ZM7.50012 12.2508C7.50012 9.80079 9.50012 7.75079 12.0001 7.75079C14.5001 7.75079 16.5001 9.80079 16.5001 12.2508C16.5001 14.7008 14.4501 16.7508 12.0001 16.7508C9.55012 16.7508 7.50012 14.7008 7.50012 12.2508ZM9.00012 12.3008C9.00012 13.9508 10.3501 15.3008 12.0001 15.3008C13.6501 15.3008 15.0001 13.9508 15.0001 12.3008C15.0001 10.6508 13.6501 9.3008 12.0001 9.3008C10.3501 9.3008 9.00012 10.6508 9.00012 12.3008Z" fill="#262626"/>
</svg>
