<svg width="28" height="28" viewBox="0 0 28 28" fill="none" xmlns="http://www.w3.org/2000/svg">
<path d="M18.2959 23.9167H6.54886C5.1897 23.9167 4.07324 22.818 4.07324 21.4806V9.921C4.07324 8.58353 5.1897 7.48489 6.54886 7.48489H18.2959C19.6551 7.48489 20.7716 8.58353 20.7716 9.921V21.4806C20.7716 22.818 19.6551 23.9167 18.2959 23.9167Z" stroke="#262626" stroke-width="1.8" stroke-miterlimit="10" stroke-linecap="round" stroke-linejoin="round"/>
<path d="M8.49121 4.8476C8.92809 4.36993 9.60767 4.08333 10.2873 4.08333H22.0343C23.3935 4.08333 24.5099 5.18196 24.5099 6.51943V18.079C24.5099 18.891 24.0731 19.6553 23.442 20.0852" stroke="#262626" stroke-width="1.8" stroke-miterlimit="10" stroke-linecap="round" stroke-linejoin="round"/>
<path d="M12.4224 15.1754C13.468 15.1754 14.3155 14.3413 14.3155 13.3125C14.3155 12.2836 13.468 11.4496 12.4224 11.4496C11.3769 11.4496 10.5293 12.2836 10.5293 13.3125C10.5293 14.3413 11.3769 15.1754 12.4224 15.1754Z" stroke="#262626" stroke-width="1.6" stroke-miterlimit="10" stroke-linecap="round" stroke-linejoin="round"/>
<path d="M16.7912 19.952V19.0444C16.7912 17.9458 15.8689 17.0382 14.7525 17.0382H10.0925C8.976 17.0382 8.05371 17.9458 8.05371 19.0444V19.952" stroke="#262626" stroke-width="1.6" stroke-miterlimit="10" stroke-linecap="round" stroke-linejoin="round"/>
</svg>
