<svg width="40" height="40" viewBox="0 0 40 40" fill="none" xmlns="http://www.w3.org/2000/svg">
<path d="M24.0833 7.3335H8.16667C7.08334 7.3335 6.25 8.16683 6.25 9.25016V28.8335C6.25 29.9168 7.08334 30.7502 8.16667 30.7502H18.75C19.25 30.7502 19.75 30.5835 20.0833 30.1668L25.4167 24.8335C25.75 24.5002 26 24.0002 26 23.5002V9.3335C26 8.16683 25.0833 7.3335 24.0833 7.3335Z" fill="#D7E6FF"/>
<path d="M18.7497 12.5835H10.083C9.49967 12.5835 9.08301 12.1668 9.08301 11.5835C9.08301 11.0002 9.49967 10.5835 10.083 10.5835H18.7497C19.333 10.5835 19.7497 11.0002 19.7497 11.5835C19.7497 12.1668 19.2497 12.5835 18.7497 12.5835Z" fill="#80A2DA"/>
<path d="M14.5833 17.0835H10C9.41666 17.0835 9 16.6668 9 16.0835C9 15.5002 9.41666 15.0835 10 15.0835H14.5833C15.1667 15.0835 15.5833 15.5002 15.5833 16.0835C15.5833 16.6668 15.1667 17.0835 14.5833 17.0835Z" fill="#80A2DA"/>
<path d="M24.2493 32.6672C23.4993 32.6672 22.916 32.0838 22.916 31.3338V27.7505H25.5827V31.3338C25.5827 32.0838 24.9993 32.6672 24.2493 32.6672Z" fill="#A4C7FF"/>
<path d="M29.9997 20.5004L23.833 22.3337V28.3337L29.9997 30.1671C30.4164 30.2504 30.833 29.9171 30.833 29.5004V21.1671C30.833 20.6671 30.4164 20.3337 29.9997 20.5004Z" fill="#0062FE"/>
<path d="M21.083 28.0002V22.6668C21.083 22.5002 21.2497 22.3335 21.4163 22.3335H23.7497V28.3335H21.4997C21.2497 28.3335 21.083 28.1668 21.083 28.0002Z" fill="#69A3FF"/>
<path d="M33.3334 25.8335H32.25C32 25.8335 31.75 25.5835 31.75 25.3335C31.75 25.0835 32 24.8335 32.25 24.8335H33.3334C33.5834 24.8335 33.8333 25.0835 33.8333 25.3335C33.8333 25.5835 33.5834 25.8335 33.3334 25.8335Z" fill="#A4C7FF"/>
<path d="M33.5 22.75L32.75 23.5C32.5833 23.6667 32.25 23.6667 32 23.5C31.8333 23.3333 31.8333 23 32 22.75L32.75 22C32.9167 21.8333 33.25 21.8333 33.5 22C33.75 22.25 33.75 22.5833 33.5 22.75Z" fill="#74AEDC"/>
<path d="M32.75 28.6665L32 27.9165C31.8333 27.7498 31.8333 27.4165 32 27.1665C32.1667 26.9998 32.5 26.9998 32.75 27.1665L33.5 27.9165C33.6667 28.0832 33.6667 28.4165 33.5 28.6665C33.3333 28.8332 33 28.8332 32.75 28.6665Z" fill="#74AEDC"/>
</svg>
