<svg width="21" height="20" viewBox="0 0 21 20" fill="none" xmlns="http://www.w3.org/2000/svg">
<path fill-rule="evenodd" clip-rule="evenodd" d="M12.9167 3.125H17.9167C18.25 3.125 18.5417 3.41667 18.5417 3.70833V16.2083C18.5417 16.5417 18.25 16.8333 17.9167 16.8333H3.125C2.79167 16.8333 2.5 16.5417 2.5 16.2083V5.45833C2.5 5.125 2.79167 4.83333 3.125 4.83333H10.9167L12.4583 3.29167C12.5833 3.20833 12.75 3.125 12.9167 3.125ZM3.75 15.625H17.2917V4.41667H13.2083L11.6667 5.95833C11.5417 6.04167 11.375 6.125 11.2083 6.125H3.75V15.625ZM5.58329 9.58333C5.24996 9.58333 4.95829 9.29167 4.95829 8.95833C4.95829 8.625 5.24996 8.33333 5.58329 8.33333H15.4166C15.75 8.33333 16.0416 8.625 16.0416 8.95833C16.0416 9.29167 15.75 9.58333 15.4166 9.58333H5.58329Z" fill="#262626"/>
</svg>
