<svg width="83" height="21" viewBox="0 0 83 21" fill="none" xmlns="http://www.w3.org/2000/svg">
<rect x="0.5" y="0.5" width="82" height="20" rx="10" fill="#F0F5FF"/>
<rect x="0.5" y="0.5" width="82" height="20" rx="10" stroke="#F0F5FF"/>
<path d="M7.11914 8.59063V12.4348C7.11914 12.9949 7.42464 13.5041 7.90835 13.7841L11.2434 15.6935C11.7271 15.9735 12.3381 15.9735 12.8218 15.6935L16.1568 13.7841C16.6405 13.5041 16.946 12.9949 16.946 12.4348V8.59063C16.946 8.03055 16.6405 7.52138 16.1568 7.24134L12.7963 5.30652C12.3126 5.02648 11.7016 5.02648 11.2179 5.30652L7.90835 7.21589C7.39918 7.49593 7.11914 8.03055 7.11914 8.59063Z" fill="url(#paint0_linear_1_8932)"/>
<path fill-rule="evenodd" clip-rule="evenodd" d="M13.0113 4.93424C13.0115 4.93434 13.0116 4.93444 13.0118 4.93454L16.3723 6.86936C16.9834 7.22314 17.376 7.87105 17.376 8.59063V12.4348C17.376 13.1544 16.9834 13.8023 16.3723 14.1561L16.3705 14.1571L13.0373 16.0655C13.037 16.0656 13.0367 16.0658 13.0364 16.066C12.4199 16.4224 11.6455 16.4224 11.0291 16.066C11.0288 16.0658 11.0285 16.0656 11.0282 16.0655L7.69312 14.1561C7.08206 13.8023 6.68945 13.1544 6.68945 12.4348V8.59063C6.68945 7.89119 7.03995 7.20507 7.69726 6.84152L11.0027 4.93454C11.0028 4.93449 11.0029 4.93444 11.0029 4.93439C11.6196 4.57747 12.3945 4.57742 13.0113 4.93424ZM12.5811 5.6785C12.2306 5.47558 11.7839 5.47558 11.4334 5.6785L8.12328 7.58819C8.12074 7.58966 8.11819 7.59109 8.11562 7.5925C7.75724 7.78962 7.5491 8.17135 7.5491 8.59063V12.4348C7.5491 12.8351 7.76714 13.2052 8.12297 13.4116C8.12326 13.4118 8.12355 13.412 8.12384 13.4121L11.4589 15.3215C11.8094 15.5244 12.2561 15.5244 12.6066 15.3215L12.6084 15.3205L15.9416 13.4121C15.9419 13.412 15.9422 13.4118 15.9424 13.4116C16.2983 13.2052 16.5163 12.8351 16.5163 12.4348V8.59063C16.5163 8.19019 16.2981 7.81991 15.942 7.61356C15.9419 7.61348 15.9417 7.6134 15.9416 7.61332L12.582 5.67901L12.5811 5.6785Z" fill="#0062FE"/>
<path fill-rule="evenodd" clip-rule="evenodd" d="M11.1394 8.46915C11.3005 8.47036 11.4473 8.56151 11.5199 8.70528L12.9434 11.5255C13.0504 11.7374 12.9653 11.9959 12.7534 12.1029C12.5415 12.2098 12.283 12.1248 12.176 11.9129L11.1291 9.83881L10.0397 11.9186C9.92952 12.1289 9.66976 12.2101 9.45947 12.0999C9.24919 11.9898 9.16802 11.73 9.27816 11.5197L10.7554 8.69952C10.8301 8.55686 10.9784 8.46794 11.1394 8.46915Z" fill="white"/>
<path fill-rule="evenodd" clip-rule="evenodd" d="M13.8219 8.46914C14.0593 8.46914 14.2517 8.66158 14.2517 8.89896V11.7192C14.2517 11.9566 14.0593 12.149 13.8219 12.149C13.5845 12.149 13.3921 11.9566 13.3921 11.7192V8.89896C13.3921 8.66158 13.5845 8.46914 13.8219 8.46914Z" fill="white"/>
<path fill-rule="evenodd" clip-rule="evenodd" d="M9.87402 10.8824C9.87402 10.645 10.0665 10.4526 10.3038 10.4526H11.9423C12.1796 10.4526 12.3721 10.645 12.3721 10.8824C12.3721 11.1198 12.1796 11.3122 11.9423 11.3122H10.3038C10.0665 11.3122 9.87402 11.1198 9.87402 10.8824Z" fill="white"/>
<path d="M25.1418 6.68555C26.4699 6.68555 27.4269 7.89648 27.4367 9.80078C27.4269 11.7246 26.4699 12.9258 25.1418 12.9258C23.8039 12.9258 22.8371 11.7246 22.8468 9.80078C22.8371 7.89648 23.8039 6.68555 25.1418 6.68555ZM25.1418 7.66211C24.3996 7.66211 23.8918 8.45312 23.8918 9.80078C23.8918 11.1582 24.3996 11.9492 25.1418 11.9492C25.8937 11.9492 26.3918 11.1582 26.3918 9.80078C26.3918 8.45312 25.8937 7.66211 25.1418 7.66211ZM29.6828 6.04102V9.42969H31.0402V10.3477H29.6828V14.8691H28.5988V6.04102H29.6828ZM38.725 6.04102V14.8789H37.6313V6.04102H38.725ZM33.9692 6.68555C35.2973 6.68555 36.2641 7.89648 36.2739 9.80078C36.2641 11.7246 35.2973 12.9258 33.9692 12.9258C32.6313 12.9258 31.6645 11.7246 31.6645 9.80078C31.6645 7.89648 32.6313 6.68555 33.9692 6.68555ZM33.9692 7.66211C33.2172 7.66211 32.7094 8.45312 32.7094 9.80078C32.7094 11.1582 33.2172 11.9492 33.9692 11.9492C34.7114 11.9492 35.2192 11.1582 35.2192 9.80078C35.2192 8.45312 34.7114 7.66211 33.9692 7.66211ZM47.3376 6.04102V14.8789H46.2439V6.04102H47.3376ZM44.7986 6.8418V7.73047H41.6345V11.832C43.2605 11.8271 44.281 11.7783 45.4529 11.5684L45.5603 12.4668C44.3005 12.7012 43.1579 12.75 41.2927 12.75H40.5407V6.8418H44.7986ZM51.0186 6.68555C52.2148 6.68555 53.0986 7.68164 53.2549 9.29297H54.9346V6.04102H56.0088V14.8789H54.9346V10.1719H53.2646C53.1475 11.876 52.249 12.9258 51.0186 12.9258C49.6904 12.9258 48.7529 11.7246 48.7529 9.80078C48.7529 7.89648 49.6904 6.68555 51.0186 6.68555ZM51.0186 7.66211C50.2861 7.66211 49.7881 8.45312 49.7979 9.80078C49.7881 11.1582 50.2861 11.9492 51.0186 11.9492C51.751 11.9492 52.2393 11.1582 52.249 9.80078C52.2393 8.45312 51.751 7.66211 51.0186 7.66211ZM60.9293 6.64648V7.91602H62.3843V6.64648H63.3902V10.8066H59.9039V6.64648H60.9293ZM60.9293 9.94727H62.3843V8.76562H60.9293V9.94727ZM67.1109 6.05078V11.4121H66.0757V9.14648H65.1968V11.168H64.1812V6.2168H65.1968V8.25781H66.0757V6.05078H67.1109ZM64.1324 11.5684C65.9781 11.5781 67.15 12.1836 67.1597 13.2285C67.15 14.2539 65.9781 14.8594 64.1324 14.8594C62.2671 14.8594 61.105 14.2539 61.105 13.2285C61.105 12.1836 62.2671 11.5781 64.1324 11.5684ZM64.1324 12.4082C62.9117 12.4082 62.189 12.6914 62.189 13.2285C62.189 13.7461 62.9117 14.0195 64.1324 14.0195C65.3433 14.0195 66.066 13.7461 66.066 13.2285C66.066 12.6914 65.3433 12.4082 64.1324 12.4082ZM75.3329 6.86133V7.91602C75.3329 9.19531 75.3329 10.416 74.9422 12.2812L73.8582 12.1836C74.0389 11.4121 74.1414 10.7334 74.2 10.1035L68.995 10.377L68.8485 9.49805L74.2489 9.29297C74.2684 8.81934 74.2684 8.36523 74.2684 7.91602V7.74023H69.1121V6.86133H75.3329ZM76.2215 12.8574V13.7461H68.1746V12.8574H76.2215Z" fill="#0062FE"/>
<defs>
<linearGradient id="paint0_linear_1_8932" x1="12.0326" y1="11.5292" x2="12.0326" y2="6.38304" gradientUnits="userSpaceOnUse">
<stop offset="0.416667" stop-color="#0062FE"/>
<stop offset="1" stop-color="white"/>
</linearGradient>
</defs>
</svg>
