<svg width="60" height="61" viewBox="0 0 60 61" fill="none" xmlns="http://www.w3.org/2000/svg">
<rect x="0.5" y="1" width="59" height="59" rx="29.5" fill="#868686"/>
<rect x="0.5" y="1" width="59" height="59" rx="29.5" stroke="#868686"/>
<path d="M13.7712 25.7812V26.5898H15.7634V24.9258H17.2517V32.6836H15.7634V30.0703H13.7712V30.9727H8.70872V25.7812H13.7712ZM10.197 26.9648V29.8125H12.3064V26.9648H10.197ZM17.4743 34.1953V35.3906H10.1501V31.9453H11.6618V34.1953H17.4743ZM13.7712 28.8867H15.7634V27.7969H13.7712V28.8867ZM27.5868 24.9141V30.75H26.0985V28.5234H24.411V27.3047H26.0985V24.9141H27.5868ZM21.9501 31.1602V32.168H26.0985V31.1602H27.5868V35.4609H20.4735V31.1602H21.9501ZM21.9501 34.2656H26.0985V33.3164H21.9501V34.2656ZM24.7508 25.3945V26.6133H22.6415C22.7001 27.8027 23.4618 29.0391 25.079 29.5664L24.3407 30.7148C23.1571 30.3223 22.3426 29.5605 21.8798 28.5938C21.411 29.666 20.5614 30.5273 19.3016 30.9375L18.5399 29.7656C20.2157 29.209 21.0184 27.9141 21.1063 26.6133H18.9618V25.3945H24.7508ZM38.0734 25.9805V27.1406H35.964C35.9933 27.9785 36.7492 28.752 38.3312 29.0391L37.7453 30.1875C36.5382 29.9531 35.7062 29.4199 35.2374 28.6992C34.7628 29.4902 33.9132 30.0879 32.6593 30.3398L32.0499 29.1797C33.6613 28.8809 34.4113 28.043 34.4523 27.1406H32.3312V25.9805H34.464V24.9375H35.964V25.9805H38.0734ZM40.6515 24.9258V35.5781H39.1749V24.9258H40.6515ZM31.6867 30.7969C33.6554 30.7969 36.2804 30.7852 38.5304 30.4922L38.6242 31.5703C37.7453 31.7227 36.8429 31.8281 35.9523 31.8867V35.25H34.464V31.9688C33.5382 32.0039 32.6535 32.0098 31.8742 32.0039L31.6867 30.7969ZM51.76 33.1055V34.3008H41.9983V33.1055H46.0764V30.6914H47.5647V33.1055H51.76ZM47.6116 26.2852C47.6116 27.8086 48.9827 29.4141 51.4202 29.7891L50.7874 31.0312C48.9124 30.6914 47.5178 29.6895 46.8147 28.3594C46.1116 29.6836 44.7288 30.6973 42.8655 31.0312L42.2327 29.7891C44.6468 29.4141 46.0061 27.7969 46.0178 26.2852V25.5234H47.6116V26.2852Z" fill="white"/>
</svg>
