<svg width="60" height="61" viewBox="0 0 60 61" fill="none" xmlns="http://www.w3.org/2000/svg">
<rect x="0.5" y="1" width="59" height="59" rx="29.5" fill="#0062FE"/>
<rect x="0.5" y="1" width="59" height="59" rx="29.5" stroke="#0062FE"/>
<path d="M13.7712 25.7812V26.5898H15.7634V24.9258H17.2517V32.6836H15.7634V30.0703H13.7712V30.9727H8.70872V25.7812H13.7712ZM10.197 26.9648V29.8125H12.3064V26.9648H10.197ZM17.4743 34.1953V35.3906H10.1501V31.9453H11.6618V34.1953H17.4743ZM13.7712 28.8867H15.7634V27.7969H13.7712V28.8867ZM27.5868 24.9141V30.75H26.0985V28.5234H24.411V27.3047H26.0985V24.9141H27.5868ZM21.9501 31.1602V32.168H26.0985V31.1602H27.5868V35.4609H20.4735V31.1602H21.9501ZM21.9501 34.2656H26.0985V33.3164H21.9501V34.2656ZM24.7508 25.3945V26.6133H22.6415C22.7001 27.8027 23.4618 29.0391 25.079 29.5664L24.3407 30.7148C23.1571 30.3223 22.3426 29.5605 21.8798 28.5938C21.411 29.666 20.5614 30.5273 19.3016 30.9375L18.5399 29.7656C20.2157 29.209 21.0184 27.9141 21.1063 26.6133H18.9618V25.3945H24.7508ZM41.4249 33.1055V34.3359H31.6632V33.1055H33.8429V30.4922C33.0167 30 32.5187 29.2441 32.5187 28.3008C32.5187 26.5781 34.2062 25.4297 36.5265 25.4297C38.8351 25.4297 40.5343 26.5781 40.546 28.3008C40.5402 29.2207 40.0538 29.9707 39.257 30.4688V33.1055H41.4249ZM36.5265 26.6133C35.0031 26.6133 33.9953 27.2227 33.9953 28.3008C33.9953 29.3438 35.0031 29.9883 36.5265 29.9883C38.0382 29.9883 39.0578 29.3438 39.0695 28.3008C39.0578 27.2227 38.0382 26.6133 36.5265 26.6133ZM35.3195 33.1055H37.7453V31.0312C37.3644 31.1074 36.9542 31.1484 36.5265 31.1484C36.0988 31.1484 35.6945 31.1133 35.3195 31.0312V33.1055ZM48.0803 26.0273V27.1992H45.9241C45.9358 28.2949 46.7444 29.4082 48.4553 29.8477L47.7639 30.9961C46.551 30.6914 45.6956 30.0176 45.2093 29.1445C44.7464 30.1406 43.8909 30.9199 42.6311 31.2773L41.928 30.1172C43.6389 29.6309 44.4241 28.4121 44.4358 27.1992H42.2913V26.0273H44.4358V24.8672H45.9475V26.0273H48.0803ZM50.9866 24.9141V31.3594H49.4983V28.9688H47.7639V27.7734H49.4983V24.9141H50.9866ZM47.3421 31.5352C49.6155 31.5469 51.01 32.2617 51.0218 33.5391C51.01 34.8281 49.6155 35.5781 47.3421 35.5781C45.0803 35.5781 43.6741 34.8281 43.6741 33.5391C43.6741 32.2617 45.0803 31.5469 47.3421 31.5352ZM47.3421 32.6836C45.9241 32.6836 45.1624 32.9648 45.1624 33.5391C45.1624 34.125 45.9241 34.4414 47.3421 34.4414C48.7835 34.4414 49.5335 34.125 49.5335 33.5391C49.5335 32.9648 48.7835 32.6836 47.3421 32.6836Z" fill="white"/>
</svg>
