<svg width="60" height="61" viewBox="0 0 60 61" fill="none" xmlns="http://www.w3.org/2000/svg">
<rect x="0.5" y="1" width="59" height="59" rx="29.5" fill="#00AFA5"/>
<rect x="0.5" y="1" width="59" height="59" rx="29.5" stroke="#00AFA5"/>
<path d="M13.7712 25.7812V26.5898H15.7634V24.9258H17.2517V32.6836H15.7634V30.0703H13.7712V30.9727H8.70872V25.7812H13.7712ZM10.197 26.9648V29.8125H12.3064V26.9648H10.197ZM17.4743 34.1953V35.3906H10.1501V31.9453H11.6618V34.1953H17.4743ZM13.7712 28.8867H15.7634V27.7969H13.7712V28.8867ZM27.5868 24.9141V30.75H26.0985V28.5234H24.411V27.3047H26.0985V24.9141H27.5868ZM21.9501 31.1602V32.168H26.0985V31.1602H27.5868V35.4609H20.4735V31.1602H21.9501ZM21.9501 34.2656H26.0985V33.3164H21.9501V34.2656ZM24.7508 25.3945V26.6133H22.6415C22.7001 27.8027 23.4618 29.0391 25.079 29.5664L24.3407 30.7148C23.1571 30.3223 22.3426 29.5605 21.8798 28.5938C21.411 29.666 20.5614 30.5273 19.3016 30.9375L18.5399 29.7656C20.2157 29.209 21.0184 27.9141 21.1063 26.6133H18.9618V25.3945H24.7508ZM40.9093 24.9141V35.5781H39.4796V24.9141H40.9093ZM38.7296 25.0664V35.0859H37.3234V31.7812H36.0695C35.671 32.8184 34.9738 33.4102 34.0773 33.4102C32.671 33.4102 31.757 31.9336 31.757 29.5312C31.757 27.1406 32.671 25.6758 34.0773 25.6758C34.9679 25.6758 35.6652 26.2559 36.0695 27.2812H37.3234V25.0664H38.7296ZM34.0773 27.082C33.4562 27.082 33.1046 27.9023 33.1163 29.5312C33.1046 31.1719 33.4562 31.9805 34.0773 31.9688C34.6984 31.9805 35.0734 31.1719 35.0734 29.5312C35.0734 27.9023 34.6867 27.082 34.0773 27.082ZM36.3624 28.4766C36.4093 28.8047 36.4328 29.1562 36.4328 29.5312C36.4328 29.9004 36.4093 30.252 36.3624 30.5742H37.3234V28.4766H36.3624ZM50.9866 24.9141V31.2422H49.4983V28.7227H47.8343V27.5156H49.4983V24.9141H50.9866ZM47.3421 31.4766C49.6155 31.4883 51.01 32.2383 51.0218 33.5391C51.01 34.8281 49.6155 35.5898 47.3421 35.5898C45.0686 35.5898 43.6741 34.8281 43.6741 33.5391C43.6741 32.2383 45.0686 31.4883 47.3421 31.4766ZM47.3421 32.625C45.9241 32.625 45.1624 32.918 45.1624 33.5391C45.1624 34.1484 45.9241 34.4531 47.3421 34.4531C48.76 34.4531 49.5335 34.1484 49.5335 33.5391C49.5335 32.918 48.76 32.625 47.3421 32.625ZM48.1507 25.5586V26.7539H46.0296C46.0647 27.9961 46.8147 29.25 48.4788 29.8008L47.7405 30.9727C46.5628 30.5918 45.7542 29.8184 45.2913 28.8516C44.8167 29.9414 43.9671 30.8203 42.7014 31.2539L41.928 30.0703C43.68 29.4844 44.4651 28.0898 44.5061 26.7539H42.3616V25.5586H48.1507Z" fill="white"/>
</svg>
