<svg width="56" height="48" viewBox="0 0 56 48" fill="none" xmlns="http://www.w3.org/2000/svg">
<path d="M36.5603 18.3657H22.3153C18.8015 18.3657 16 21.2438 16 24.8047V40.6584C16 40.9999 16.3799 41.1462 16.5698 40.9023L18.3742 39.0974C20.5584 36.8535 23.5499 35.5852 26.6363 35.5852H36.6078C40.0741 35.5852 42.9231 32.7072 42.9231 29.0974V24.8047C42.8756 21.2438 40.0266 18.3657 36.5603 18.3657Z" fill="#0062FE"/>
<path d="M29.4376 16.561C32.0075 16.561 34.0909 14.4207 34.0909 11.7805C34.0909 9.1403 32.0075 7 29.4376 7C26.8676 7 24.7842 9.1403 24.7842 11.7805C24.7842 14.4207 26.8676 16.561 29.4376 16.561Z" fill="#FEB800"/>
<path d="M29.4379 30.1708C26.6364 30.1708 24.0723 28.7562 22.5528 26.3659C22.2679 25.9269 22.3629 25.2928 22.8377 25.0001C23.2651 24.7074 23.8824 24.805 24.1673 25.2928C25.3544 27.0976 27.3012 28.2196 29.4379 28.2196C31.5747 28.2196 33.5215 27.1464 34.7086 25.2928C34.9935 24.8537 35.6108 24.7074 36.0381 25.0001C36.4655 25.2928 36.6079 25.9269 36.323 26.3659C34.8035 28.7562 32.192 30.1708 29.4379 30.1708Z" fill="white"/>
</svg>
