<svg width="66" height="22" viewBox="0 0 66 22" fill="none" xmlns="http://www.w3.org/2000/svg">
<rect x="0.5" y="0.5" width="65" height="21" rx="5.5" stroke="#868686"/>
<path d="M8.80707 11.5703V12.5859H12.7231V11.5703H13.7973V15.2617H7.74262V11.5703H8.80707ZM8.80707 14.3828H12.7231V13.4258H8.80707V14.3828ZM13.8266 6.92188V7.60547C13.8266 8.27441 13.8266 9.01172 13.6118 10.0469H14.8129V10.916H6.74652V10.0469H12.5375C12.7231 9.11426 12.7426 8.41113 12.7426 7.79102H7.74262V6.92188H13.8266ZM17.7712 7.18555C18.572 7.18555 19.2312 7.62988 19.6267 8.40625H21.6872V6.54102H22.7614V15.3789H21.6872V12.0391H19.7048C19.3239 12.918 18.6257 13.4258 17.7712 13.4258C16.4431 13.4258 15.5056 12.2246 15.5056 10.3008C15.5056 8.39648 16.4431 7.18555 17.7712 7.18555ZM17.7712 8.16211C17.0388 8.16211 16.5407 8.95312 16.5505 10.3008C16.5407 11.6582 17.0388 12.4492 17.7712 12.4492C18.5036 12.4492 18.9919 11.6582 19.0017 10.3008C18.9919 8.95312 18.5036 8.16211 17.7712 8.16211ZM19.9294 9.29492C19.9929 9.60254 20.0271 9.93945 20.0271 10.3008C20.0271 10.6084 20.0027 10.8916 19.9587 11.1602H21.6872V9.29492H19.9294ZM31.5889 6.54102V15.3691H30.5537V6.54102H31.5889ZM29.7627 6.75586V14.9492H28.7275V12H27.3506V11.1113H28.7275V9.80273H27.5068C27.0918 11.2676 26.1689 12.5273 24.5186 13.5039L23.8838 12.7324C25.7148 11.6533 26.5547 10.2715 26.7158 8.49414H24.3525V7.61523H27.79C27.79 8.05957 27.7607 8.49414 27.7021 8.91406H28.7275V6.75586H29.7627ZM35.7483 8.10352C35.7386 9.26562 36.471 10.3691 37.8577 10.8184L37.2913 11.6777C36.3098 11.3457 35.6165 10.6816 35.2307 9.83203C34.8352 10.7695 34.1077 11.502 33.0823 11.8633L32.4768 11.0039C33.9319 10.5352 34.6546 9.34375 34.6546 8.09375V7.08789H35.7483V8.10352ZM39.5471 6.54102V9.14844H40.7776V10.0664H39.5471V13.0254H38.4632V6.54102H39.5471ZM39.8987 14.3145V15.1934H33.8929V12.3906H35.0061V14.3145H39.8987ZM48.5699 6.54102V15.3691H47.4761V6.54102H48.5699ZM45.9332 7.47852C45.9332 10.1055 44.9175 12.3418 41.8218 13.8066L41.2554 12.9375C43.565 11.8389 44.6392 10.3447 44.8297 8.33789H41.7047V7.47852H45.9332Z" fill="#868686"/>
<path fill-rule="evenodd" clip-rule="evenodd" d="M55.1989 14.979C55.2864 15.0665 55.403 15.0956 55.5197 15.0956C55.6364 15.0956 55.753 15.0373 55.8405 14.9498L59.4572 11.304C59.6322 11.129 59.6322 10.8665 59.4572 10.6915L55.8114 7.04564C55.6364 6.87064 55.3739 6.87064 55.1989 7.04564C55.0239 7.22064 55.0239 7.48314 55.1989 7.65814L58.553 11.0123L55.1989 14.3665C55.0239 14.5415 55.0239 14.804 55.1989 14.979Z" fill="#868686"/>
</svg>
