<svg width="30" height="21" viewBox="0 0 30 21" fill="none" xmlns="http://www.w3.org/2000/svg">
<rect x="0.5" y="0.5" width="29" height="20" rx="10" fill="white"/>
<rect x="0.5" y="0.5" width="29" height="20" rx="10" stroke="#0062FE"/>
<path d="M14.0189 6.05078V12.4961H12.9252V6.05078H14.0189ZM14.263 13.8145V14.6934H8.17906V11.8809H9.27281V13.8145H14.263ZM9.95641 7.39844C9.95641 8.62891 10.6791 9.79102 12.0755 10.2598L11.5189 11.1191C10.513 10.7676 9.79527 10.0645 9.40953 9.16602C9.00914 10.1279 8.2816 10.8994 7.24156 11.2754L6.67516 10.416C8.1107 9.9082 8.83336 8.66797 8.83336 7.39844V6.53906H9.95641V7.39844ZM22.6315 6.04102V10.7773H21.5377V6.04102H22.6315ZM17.8659 11.1875V12.0957H21.5475V11.1875H22.6315V14.7617H16.7916V11.1875H17.8659ZM17.8659 13.8828H21.5475V12.9453H17.8659V13.8828ZM17.817 6.43164C19.1745 6.42188 20.1901 7.27148 20.1901 8.50195C20.1901 9.70312 19.1745 10.5527 17.817 10.5527C16.4498 10.5527 15.4342 9.70312 15.4342 8.50195C15.4342 7.27148 16.4498 6.42188 17.817 6.43164ZM17.817 7.33984C17.0455 7.33984 16.4889 7.78906 16.4987 8.50195C16.4889 9.20508 17.0455 9.6543 17.817 9.66406C18.5788 9.6543 19.1256 9.20508 19.1256 8.50195C19.1256 7.78906 18.5788 7.33984 17.817 7.33984Z" fill="#0062FE"/>
</svg>
