<svg width="52" height="52" viewBox="0 0 52 52" fill="none" xmlns="http://www.w3.org/2000/svg">
<rect x="0.5" y="0.5" width="51" height="51" rx="25.5" fill="#0062FE"/>
<rect x="0.5" y="0.5" width="51" height="51" rx="25.5" stroke="#0062FE"/>
<path fill-rule="evenodd" clip-rule="evenodd" d="M26.0001 16.5337C26.5335 16.5337 27.0001 17.0004 27.0001 17.5337V25.0004H34.4668C35.0001 25.0004 35.5335 25.467 35.5335 26.0004C35.5335 26.5337 35.0668 27.0004 34.5335 27.0004H27.0001V34.6004C27.0001 35.1337 26.5335 35.6004 26.0001 35.6004C25.4668 35.6004 25.0001 35.1337 25.0001 34.6004V27.067H17.4668C16.9335 27.067 16.4668 26.6004 16.4668 26.067C16.4668 25.5337 16.9335 25.067 17.4668 25.067H25.0001V17.5337C25.0001 17.0004 25.4668 16.5337 26.0001 16.5337Z" fill="white"/>
</svg>
