<svg width="30" height="21" viewBox="0 0 30 21" fill="none" xmlns="http://www.w3.org/2000/svg">
<rect x="0.5" y="0.5" width="29" height="20" rx="10" fill="white"/>
<rect x="0.5" y="0.5" width="29" height="20" rx="10" stroke="#0062FE"/>
<path d="M14.0677 6.05078V11.1973H12.974V10.8359H11.3236V10.1719H12.974V6.05078H14.0677ZM6.65563 9.23438C8.36461 9.23438 10.4935 9.21484 12.388 9.0293L12.4466 9.71289C11.641 9.8252 10.8109 9.89355 9.99547 9.92773V11.207H8.92125V9.97656C8.16441 9.99609 7.43688 10.001 6.77281 9.99609L6.65563 9.23438ZM14.0677 11.4707V13.4531H9.0482V14.0195H14.3021V14.791H7.98375V12.7402H12.9935V12.2129H7.94469V11.4707H14.0677ZM9.50719 6.1875C10.8158 6.1875 11.7142 6.71484 11.7142 7.51562C11.7142 8.33594 10.8158 8.83398 9.50719 8.83398C8.1693 8.83398 7.28063 8.33594 7.28063 7.51562C7.28063 6.71484 8.1693 6.1875 9.50719 6.1875ZM9.50719 6.91016C8.765 6.91016 8.30602 7.14453 8.31578 7.51562C8.30602 7.88672 8.765 8.11133 9.50719 8.11133C10.2298 8.11133 10.6986 7.88672 10.6986 7.51562C10.6986 7.14453 10.2298 6.91016 9.50719 6.91016ZM17.3385 11.0703V12.0859H21.2545V11.0703H22.3288V14.7617H16.2741V11.0703H17.3385ZM17.3385 13.8828H21.2545V12.9258H17.3385V13.8828ZM22.358 6.42188V7.10547C22.358 7.77441 22.358 8.51172 22.1432 9.54688H23.3444V10.416H15.278V9.54688H21.069C21.2545 8.61426 21.2741 7.91113 21.2741 7.29102H16.2741V6.42188H22.358Z" fill="#0062FE"/>
</svg>
