<svg width="28" height="28" viewBox="0 0 28 28" fill="none" xmlns="http://www.w3.org/2000/svg">
<rect x="0.5" y="0.5" width="27" height="27" rx="5.5" fill="white"/>
<rect x="0.5" y="0.5" width="27" height="27" rx="5.5" stroke="#D6D6D6"/>
<g clip-path="url(#clip0_1_7730)">
<path fill-rule="evenodd" clip-rule="evenodd" d="M14 16.6999C13.85 16.6999 13.7 16.6624 13.5875 16.5499L10.5875 13.5124C10.3625 13.2874 10.3625 12.9499 10.5875 12.7249C10.8125 12.4999 11.15 12.4999 11.375 12.7249L13.475 14.8249V8.8999C13.475 8.5999 13.7375 8.3374 14.0375 8.3374C14.3375 8.3374 14.6 8.5999 14.6 8.8999V14.7874L16.6625 12.7249C16.8875 12.4999 17.225 12.4999 17.45 12.7249C17.675 12.9499 17.675 13.2874 17.45 13.5124L14.4125 16.5499C14.3 16.6624 14.15 16.6999 14 16.6999ZM19.7375 13.5874C19.7375 13.2874 20 13.0249 20.3 13.0249C20.6 13.0249 20.8625 13.2874 20.8625 13.5874V19.4749C20.8625 19.7749 20.6 20.0374 20.3 20.0374H7.69995C7.39995 20.0374 7.13745 19.7749 7.13745 19.4749V13.5874C7.13745 13.2874 7.39995 13.0249 7.69995 13.0249C7.99995 13.0249 8.26245 13.2874 8.26245 13.5874V18.9124H19.7375V13.5874Z" fill="#262626"/>
</g>
<defs>
<clipPath id="clip0_1_7730">
<rect width="18" height="18" fill="white" transform="translate(5 5)"/>
</clipPath>
</defs>
</svg>
