<svg width="102" height="28" viewBox="0 0 102 28" fill="none" xmlns="http://www.w3.org/2000/svg">
<rect x="0.5" y="0.5" width="101" height="27" rx="5.5" fill="#0062FE"/>
<rect x="0.5" y="0.5" width="101" height="27" rx="5.5" stroke="#0062FE"/>
<g clip-path="url(#clip0_1_6578)">
<path d="M14.4124 11.8626H22.2499C22.5499 11.8626 22.8124 11.6001 22.8124 11.3001C22.8124 11.0001 22.5499 10.7376 22.2499 10.7376H14.4124C14.1499 9.9126 13.4374 9.3501 12.5374 9.3501C11.4499 9.3501 10.5874 10.2501 10.5874 11.3001C10.5874 12.3501 11.4499 13.2501 12.5374 13.2501C13.4374 13.2501 14.1874 12.6876 14.4124 11.8626ZM11.7124 11.3001C11.7124 10.8501 12.0874 10.4751 12.5374 10.4751C12.9874 10.4751 13.3624 10.8501 13.3624 11.3001C13.3624 11.7501 12.9874 12.1251 12.5374 12.1251C12.0874 12.1251 11.7124 11.7501 11.7124 11.3001Z" fill="white"/>
<path d="M21.4623 14.75C20.5623 14.75 19.8123 15.35 19.5873 16.1375H11.8623C11.5623 16.1375 11.2998 16.4 11.2998 16.7C11.2998 17 11.5623 17.2625 11.8623 17.2625H19.5873C19.8498 18.0875 20.5623 18.65 21.4623 18.65C22.5498 18.65 23.4123 17.75 23.4123 16.7C23.4123 15.6125 22.5498 14.75 21.4623 14.75ZM21.4623 17.525C21.0123 17.525 20.6373 17.15 20.6373 16.7C20.6373 16.25 21.0123 15.875 21.4623 15.875C21.9123 15.875 22.2873 16.25 22.2873 16.7C22.2873 17.15 21.9123 17.525 21.4623 17.525Z" fill="white"/>
</g>
<path d="M34.4134 10.1367C34.4134 11.4727 35.2806 12.7266 36.9095 13.2422L36.2063 14.2617C35.0638 13.875 34.2435 13.1016 33.7923 12.1172C33.3235 13.2422 32.4681 14.127 31.2493 14.5547L30.5462 13.5352C32.2571 12.9375 33.1009 11.5312 33.1126 10.0195V9.01172H34.4134V10.1367ZM39.0188 8.44922V11.0273H40.4954V12.1055H39.0188V14.7891H37.7181V8.44922H39.0188ZM35.5735 15.0234C37.7649 15.0117 39.1126 15.7617 39.1243 17.0156C39.1126 18.293 37.7649 19.0312 35.5735 19.0312C33.3587 19.0312 31.9876 18.293 31.9876 17.0156C31.9876 15.7617 33.3587 15.0117 35.5735 15.0234ZM35.5735 16.043C34.1204 16.043 33.2884 16.3945 33.2884 17.0156C33.2884 17.6719 34.1204 18 35.5735 18C37.0267 18 37.8353 17.6719 37.8353 17.0156C37.8353 16.3945 37.0267 16.043 35.5735 16.043ZM44.3032 11.2266C44.3032 12.9375 44.9008 14.7188 46.3305 15.6211L45.6157 16.6172C44.6606 16.043 44.0395 15.0527 43.6938 13.8867C43.3071 15.1699 42.6274 16.2539 41.6313 16.8633L40.8227 15.8906C42.3578 14.9531 43.0493 13.0898 43.0493 11.2852V9.38672H44.3032V11.2266ZM50.1391 8.44922V19.043H48.8852V8.44922H50.1391ZM47.936 8.63672V18.5273H46.7055V13.1719H45.1938V12.0938H46.7055V8.63672H47.936ZM56.8179 9.09375C56.8062 11.8242 55.0133 13.7344 51.9312 14.6016L51.4039 13.582C53.7769 12.9316 55.1832 11.6953 55.4234 10.1484H51.9781V9.09375H56.8179ZM60.2047 8.46094V14.4258H58.9039V12.1172H56.8648V11.0508H58.9039V8.46094H60.2047ZM60.2047 14.8477V18.9023H53.232V14.8477H60.2047ZM54.5093 15.8789V17.8711H58.9156V15.8789H54.5093ZM64.9733 10.3711C64.9733 11.5547 65.6296 12.7266 67.0241 13.2773L66.321 14.2734C65.3894 13.8984 64.739 13.207 64.364 12.3516C63.9655 13.3125 63.2741 14.1211 62.2663 14.5547L61.5749 13.5469C63.028 12.9023 63.7077 11.5664 63.7194 10.3711V9.08203H64.9733V10.3711ZM70.7273 8.46094V14.8711H69.4851V12.1758H68.4304V14.8125H67.2116V8.63672H68.4304V11.0977H69.4851V8.46094H70.7273ZM70.7273 15.375V19.043H69.4265V16.418H63.4733V15.375H70.7273Z" fill="white"/>
<g clip-path="url(#clip1_1_6578)">
<path d="M84 20C87.3137 20 90 17.3137 90 14C90 10.6863 87.3137 8 84 8C80.6863 8 78 10.6863 78 14C78 17.3137 80.6863 20 84 20Z" fill="white"/>
<path fill-rule="evenodd" clip-rule="evenodd" d="M87.2198 11.9921C87.5322 12.3045 87.5322 12.8111 87.2198 13.1235L83.8736 16.4697C83.5612 16.7821 83.0547 16.7821 82.7422 16.4697L80.7807 14.5081C80.4683 14.1957 80.4683 13.6892 80.7807 13.3767C81.0931 13.0643 81.5997 13.0643 81.9121 13.3767L83.3079 14.7726L86.0884 11.9921C86.4008 11.6797 86.9073 11.6797 87.2198 11.9921Z" fill="#0062FE"/>
</g>
<defs>
<clipPath id="clip0_1_6578">
<rect width="18" height="18" fill="white" transform="translate(8 5)"/>
</clipPath>
<clipPath id="clip1_1_6578">
<rect width="12" height="12" fill="white" transform="translate(78 8)"/>
</clipPath>
</defs>
</svg>
