<svg width="60" height="61" viewBox="0 0 60 61" fill="none" xmlns="http://www.w3.org/2000/svg">
<rect x="0.5" y="1" width="59" height="59" rx="29.5" fill="#868686"/>
<rect x="0.5" y="1" width="59" height="59" rx="29.5" stroke="#868686"/>
<path d="M17.4861 24.9141V35.5781H16.0681V24.9141H17.4861ZM15.3064 25.0898V35.0859H13.9001V29.7773H12.4939V28.5703H13.9001V25.0898H15.3064ZM11.6384 27.7734C11.6384 29.543 12.1892 31.3359 13.7478 32.2266L12.8689 33.3281C11.9197 32.7656 11.2927 31.8105 10.9353 30.668C10.5661 31.9102 9.92161 32.9648 8.94309 33.5625L8.04075 32.4609C9.61106 31.5 10.197 29.5781 10.197 27.7734V27.1992H8.45091V26.0039H13.2556V27.1992H11.6384V27.7734ZM27.0594 24.9141V27.9727H28.5008V29.2148H27.0594V32.6836H25.5594V24.9141H27.0594ZM27.4462 34.1953V35.3906H20.1454V31.8633H21.6337V34.1953H27.4462ZM21.5985 25.6055C23.2274 25.6055 24.5048 26.7305 24.5048 28.3125C24.5048 29.8711 23.2274 31.0195 21.5985 31.0195C19.9579 31.0195 18.6688 29.8711 18.6688 28.3125C18.6688 26.7305 19.9579 25.6055 21.5985 25.6055ZM21.5985 26.9062C20.7899 26.8945 20.1337 27.4219 20.1454 28.3125C20.1337 29.1797 20.7899 29.7188 21.5985 29.7188C22.4188 29.7188 23.0399 29.1797 23.0516 28.3125C23.0399 27.4219 22.4188 26.8945 21.5985 26.9062ZM40.6515 24.9141V35.5781H39.1632V30.2344H37.0421V29.0156H39.1632V24.9141H40.6515ZM37.1007 26.0273C37.1007 29.25 36.0578 31.875 32.3312 33.7266L31.5578 32.5547C34.2531 31.2246 35.3663 29.5312 35.6007 27.1992H32.0617V26.0273H37.1007ZM48.0921 25.3242V26.5195H45.971C46.012 27.5859 46.7854 28.6992 48.4085 29.168L47.7171 30.3516C46.5159 30.0059 45.6897 29.2969 45.221 28.4062C44.7346 29.3906 43.8675 30.1992 42.6311 30.5742L41.9046 29.4141C43.5745 28.8809 44.4065 27.6504 44.471 26.5195H42.3147V25.3242H48.0921ZM50.9866 24.9141V30.3398H49.4983V28.2891H47.8225V27.1055H49.4983V24.9141H50.9866ZM50.9866 30.75V33.6328H45.3968V34.3125H51.303V35.4727H43.8968V32.543H49.4983V31.9336H43.885V30.75H50.9866Z" fill="white"/>
</svg>
